<svg width="349" height="349" viewBox="0 0 349 349" fill="none" xmlns="http://www.w3.org/2000/svg">
<path d="M227.995 160.585C222.201 160.585 217.725 162.252 214.549 165.529C211.35 168.797 209.358 173.246 208.541 178.875H247.38C246.958 172.882 244.958 168.349 241.357 165.25C237.782 162.144 233.318 160.585 227.995 160.585Z" fill="#8c899a"/>
<path d="M143.312 158.368C146.57 156.384 148.194 152.856 148.194 147.788C148.194 142.191 146.044 138.473 141.73 136.686C138.024 135.444 133.278 134.802 127.526 134.802H105.128V161.351H130.593C135.823 161.351 140.055 160.357 143.312 158.368Z" fill="#8c899a"/>
<path d="M142.991 183.316C140.14 181.996 136.117 181.323 130.957 181.277H105.124V213.35H130.554C135.781 213.35 139.823 212.665 142.744 211.238C148.009 208.615 150.647 203.621 150.647 196.209C150.647 189.958 148.09 185.637 142.991 183.316Z" fill="#8c899a"/>
<path d="M174.078 0C77.9366 0 0 77.9366 0 174.078C0 270.219 77.9366 348.156 174.078 348.156C270.219 348.156 348.156 270.219 348.156 174.078C348.156 77.9366 270.219 0 174.078 0ZM203.574 118.895H252.041V130.934H252.038H203.574V118.895ZM170.654 217.129C168.376 220.874 165.544 224.034 162.14 226.584C158.31 229.527 153.773 231.547 148.558 232.626C143.328 233.705 137.665 234.251 131.564 234.251H77.3679V113.905H135.491C150.14 114.145 160.527 118.388 166.662 126.725C170.341 131.839 172.167 137.97 172.167 145.104C172.167 152.461 170.322 158.349 166.604 162.821C164.538 165.327 161.482 167.61 157.44 169.668C163.563 171.908 168.209 175.439 171.316 180.298C174.441 185.141 176.004 191.021 176.004 197.926C176 205.068 174.24 211.474 170.654 217.129ZM270.764 193.745H208C208.344 202.41 211.338 208.468 217.009 211.934C220.429 214.108 224.576 215.172 229.435 215.172C234.556 215.172 238.73 213.876 241.941 211.214C243.693 209.802 245.237 207.814 246.572 205.3H269.577C268.973 210.417 266.204 215.605 261.225 220.882C253.511 229.264 242.695 233.465 228.804 233.465C217.326 233.465 207.214 229.922 198.437 222.858C189.687 215.771 185.292 204.274 185.292 188.325C185.292 173.37 189.238 161.923 197.153 153.954C205.098 145.97 215.354 141.997 227.992 141.997C235.485 141.997 242.239 143.336 248.262 146.028C254.27 148.724 259.233 152.964 263.144 158.794C266.683 163.927 268.958 169.865 270.018 176.623C270.606 180.565 270.873 186.279 270.764 193.745Z" fill="#8c899a"/>
</svg>
