<svg width="20" height="20" viewbox="0 0 20 20" fill="none" xmlns="http://www.w3.org/2000/svg">
<path d="M14.4902 6.00321C14.3056 4.69004 13.607 3.50396 12.5479 2.7059C11.4889 1.90785 10.1562 1.56318 8.84298 1.74774C7.52981 1.93229 6.34373 2.63095 5.54567 3.69C4.74761 4.74906 4.40295 6.08177 4.58751 7.39495C5.39935 13.1715 3.15564 15.1699 3.15564 15.1699L18.0097 13.0823C18.0097 13.0823 15.302 11.7798 14.4902 6.00321Z" fill="#C39553"/>
<path fill-rule="evenodd" clip-rule="evenodd" d="M4.88014 3.18849C5.81121 1.95293 7.19497 1.13783 8.72701 0.922516C10.259 0.707202 11.8139 1.10931 13.0494 2.04037C14.285 2.97144 15.1001 4.3552 15.3154 5.88724C15.7042 8.65393 16.5374 10.2889 17.2233 11.212C17.5676 11.6755 17.8805 11.9673 18.0932 12.1368C18.1998 12.2217 18.2819 12.2764 18.3309 12.3068C18.3555 12.3221 18.3718 12.3312 18.3788 12.3351L18.3814 12.3365C18.7058 12.4981 18.8889 12.8514 18.8331 13.2104C18.7766 13.5733 18.4893 13.8564 18.1256 13.9075L3.27161 15.9951C2.90797 16.0462 2.55372 15.8533 2.39943 15.52C2.24677 15.1903 2.32544 14.8002 2.59271 14.5554L2.59483 14.5534C2.60052 14.5477 2.61367 14.5344 2.63307 14.513C2.67184 14.4703 2.73565 14.3951 2.8147 14.284C2.97242 14.0625 3.19276 13.6957 3.39602 13.1553C3.80084 12.0789 4.15112 10.2776 3.76229 7.51092C3.54697 5.97888 3.94908 4.42406 4.88014 3.18849ZM16.12 12.5063C16.0428 12.4123 15.9644 12.3122 15.8854 12.2059C15.0145 11.0337 14.088 9.12906 13.665 6.11919C13.5112 5.02488 12.929 4.03648 12.0464 3.37143C11.1639 2.70638 10.0533 2.41917 8.95896 2.57296C7.86465 2.72676 6.87625 3.30897 6.2112 4.19152C5.54615 5.07406 5.25894 6.18465 5.41273 7.27897C5.83574 10.2888 5.47008 12.3751 4.95601 13.742C4.90939 13.8659 4.86166 13.9837 4.81333 14.0954L16.12 12.5063Z" fill="#C39553"/>
<path fill-rule="evenodd" clip-rule="evenodd" d="M9.10382 16.9721C9.46591 16.688 9.98975 16.7513 10.2738 17.1134C10.364 17.2282 10.4827 17.3174 10.6181 17.3719C10.7535 17.4265 10.9009 17.4445 11.0454 17.4242C11.19 17.4039 11.3267 17.3459 11.4418 17.2562C11.557 17.1664 11.6465 17.048 11.7015 16.9127C11.8748 16.4864 12.3609 16.2812 12.7872 16.4545C13.2136 16.6278 13.4188 17.1139 13.2455 17.5402C13.0806 17.946 12.812 18.3013 12.4666 18.5706C12.1212 18.8399 11.7111 19.0137 11.2774 19.0746C10.8437 19.1356 10.4016 19.0815 9.99532 18.9179C9.58907 18.7542 9.23294 18.4867 8.96259 18.1422C8.6785 17.7801 8.74173 17.2562 9.10382 16.9721Z" fill="#C39553"/>
</svg>
