<svg width="14" height="14" viewbox="0 0 14 14" fill="none" xmlns="http://www.w3.org/2000/svg">
<path fill-rule="evenodd" clip-rule="evenodd" d="M14.0007 7.00033C14.0007 10.8665 10.8665 14.0007 7.00033 14.0007C3.13415 14.0007 0 10.8665 0 7.00033C0 3.13415 3.13415 0 7.00033 0C10.8665 0 14.0007 3.13415 14.0007 7.00033ZM7.75002 2.79981C7.75002 2.38559 7.41423 2.04981 7.00002 2.04981C6.5858 2.04981 6.25002 2.38559 6.25002 2.79981V7C6.25002 7.28408 6.41052 7.54378 6.66461 7.67082L9.46474 9.07089C9.83522 9.25613 10.2857 9.10596 10.471 8.73548C10.6562 8.36499 10.506 7.91449 10.1356 7.72925L7.75002 6.53648V2.79981Z" fill="#8C899A"/>
</svg>
