<svg width="20" height="20" viewbox="0 0 20 20" fill="none" xmlns="http://www.w3.org/2000/svg">
<path fill-rule="evenodd" clip-rule="evenodd" d="M10.3163 2.697C12.2456 0.767668 15.3737 0.767667 17.303 2.697C19.2323 4.62633 19.2323 7.75439 17.303 9.68372L16.8797 10.107C16.5868 10.3999 16.1119 10.3999 15.819 10.107C15.5262 9.81411 15.5262 9.33924 15.819 9.04635L16.2423 8.62306C17.5859 7.27952 17.5859 5.1012 16.2423 3.75766C14.8988 2.41411 12.7205 2.41411 11.3769 3.75766L8.19819 6.93636C7.20754 7.92702 7.20754 9.53318 8.19819 10.5238L9.26045 11.5861C9.55335 11.879 9.55335 12.3539 9.26045 12.6467C8.96756 12.9396 8.49269 12.9396 8.19979 12.6468L7.13753 11.5845C5.56109 10.0081 5.56109 7.45214 7.13753 5.8757L10.3163 2.697ZM10.7395 7.35325C11.0324 7.06036 11.5073 7.06036 11.8002 7.35325L12.8625 8.4155C14.4389 9.99194 14.4389 12.5479 12.8625 14.1243L9.68375 17.303C7.75441 19.2323 4.62634 19.2323 2.697 17.303C0.767664 15.3737 0.767667 12.2456 2.69701 10.3163L3.12029 9.89299C3.41319 9.6001 3.88806 9.6001 4.18096 9.89299C4.47385 10.1859 4.47385 10.6608 4.18095 10.9537L3.75766 11.3769C2.41411 12.7205 2.41411 14.8988 3.75766 16.2423C5.10121 17.5859 7.27954 17.5859 8.62309 16.2423L11.8018 13.0636C12.7925 12.073 12.7925 10.4668 11.8018 9.47617L10.7395 8.41391C10.4467 8.12102 10.4467 7.64614 10.7395 7.35325Z" fill="#8C899A"/>
</svg>
