<svg width="88" height="88" viewBox="0 0 88 88" fill="none" xmlns="http://www.w3.org/2000/svg">
<path d="M44 88C68.3005 88 88 68.3005 88 44C88 19.6995 68.3005 0 44 0C19.6995 0 0 19.6995 0 44C0 68.3005 19.6995 88 44 88Z" fill="white" fill-opacity="0.74"/>
<path d="M60.9087 29.9906L60.8631 29.945V29.8993L52.1919 21.2282L52.1463 21.1826C52.1463 21.1826 52.1007 21.1826 52.1007 21.1369C52.1007 21.1369 52.055 21.1369 52.055 21.0913C51.9181 21 51.7812 21 51.5987 21H30.1034C29.2819 21 28.506 21.3195 27.9584 21.8671L27.9128 21.9128C27.3651 22.4604 27 23.2819 27 24.1034V62.9409C27 63.808 27.3651 64.5839 27.9128 65.1315C28.4604 65.6792 29.2819 66.0443 30.1034 66.0443H57.8966C58.7638 66.0443 59.5396 65.6792 60.0872 65.1315C60.6349 64.5839 61 63.7624 61 62.9409V30.447C61 30.2644 60.9544 30.1275 60.9087 29.9906ZM52.4658 24.2859L57.6228 29.443H53.8349C53.4698 29.443 53.1047 29.306 52.8765 29.0322C52.6483 28.804 52.4658 28.4389 52.4658 28.0738V24.2859ZM59.0376 62.9409C59.0376 63.2604 58.9007 63.5342 58.6725 63.7624C58.4443 63.9906 58.1705 64.1275 57.851 64.1275H30.1034C29.7839 64.1275 29.5101 63.9906 29.2819 63.808C29.0537 63.5799 28.9624 63.306 28.9624 62.9866V24.0577C28.9624 23.7383 29.0993 23.4644 29.3275 23.2362L29.3732 23.1906C29.6013 23.0081 29.8752 22.8711 30.149 22.8711H50.5946V28.0282C50.5946 28.9409 50.9597 29.7624 51.5987 30.4013C52.1919 30.9946 53.0591 31.3597 53.9718 31.3597H59.0376V62.9409Z" fill="black"/>
</svg>
