<svg width="13" height="15" viewbox="0 0 13 15" fill="none" xmlns="http://www.w3.org/2000/svg">
<path d="M3.25 4.23936C4.71513 3.35587 5.71994 1.79791 5.83828 0C7.96531 1.05215 9.425 3.22051 9.425 5.72466C9.425 6.46195 9.29846 7.17014 9.06561 7.82929C10.1696 7.50107 11.0256 6.61006 11.29 5.49498C12.3466 6.53742 13 7.97652 13 9.56594C13 12.0747 11.3721 14.209 9.1 15C6.82787 14.209 5.2 12.0747 5.2 9.56594C5.2 9.50229 5.20105 9.43889 5.20313 9.37574C4.39219 10.279 3.9 11.4664 3.9 12.767C3.9 13.3882 4.01228 13.9836 4.21794 14.5345C1.79742 13.9562 0 11.8077 0 9.24583C0 7.20491 1.1407 5.42641 2.8284 4.49508L3.25 4.23936Z" fill="#FC364C"/>
</svg>
