<svg width="88" height="88" viewBox="0 0 88 88" fill="none" xmlns="http://www.w3.org/2000/svg">
<path d="M44 88C68.3005 88 88 68.3005 88 44C88 19.6995 68.3005 0 44 0C19.6995 0 0 19.6995 0 44C0 68.3005 19.6995 88 44 88Z" fill="white" fill-opacity="0.74"/>
<path d="M67.5352 38.9126H62.0439V33.4209C62.0439 32.6118 61.3878 31.9561 60.5791 31.9561H55.0874V26.4648C55.0874 25.6557 54.4317 25 53.6226 25H20.4648C19.6557 25 19 25.6557 19 26.4648V49.6521C19 50.4612 19.6557 51.1169 20.4648 51.1169H25.9561V56.6082C25.9561 57.4173 26.6118 58.073 27.4209 58.073H32.9126V63.5647C32.9126 64.3734 33.5683 65.0295 34.3774 65.0295H67.5352C68.3443 65.0295 69 64.3734 69 63.5647V40.3774C69 39.5683 68.3443 38.9126 67.5352 38.9126V38.9126ZM21.9297 27.9297H52.1577V48.1873H21.9297V27.9297ZM28.8858 51.1169H53.6226C54.4317 51.1169 55.0874 50.4612 55.0874 49.6521V34.8858H59.1142V55.1437H28.8858V51.1169ZM66.0703 62.0998H35.8423V58.0734H60.5791C61.3882 58.0734 62.0439 57.4173 62.0439 56.6086V41.8423H66.0703V62.0998Z" fill="black"/>
</svg>
