<svg width="15" height="16" viewBox="0 0 15 16" fill="none" xmlns="http://www.w3.org/2000/svg">
<path fill-rule="evenodd" clip-rule="evenodd" d="M4.57499 2.15005C4.27662 2.15005 3.99047 2.26858 3.77949 2.47955C3.56851 2.69053 3.44999 2.97668 3.44999 3.27505C3.44999 3.57342 3.56851 3.85957 3.77949 4.07054C3.99047 4.28152 4.27662 4.40005 4.57499 4.40005H6.65309C6.44339 3.66385 6.16529 3.13915 5.86289 2.78635C5.47589 2.33455 5.03939 2.15005 4.57499 2.15005ZM2.09999 3.27505C2.09999 3.68005 2.19719 4.06255 2.36999 4.40005H1.87499C1.45727 4.40005 1.05666 4.56599 0.761295 4.86136C0.465925 5.15673 0.299988 5.55733 0.299988 5.97505L0.299988 7.77505C0.299988 8.40325 0.668088 8.94505 1.19999 9.19885V13.625C1.19999 14.4944 1.90559 15.2 2.77499 15.2H12.225C12.6427 15.2 13.0433 15.0341 13.3387 14.7387C13.6341 14.4434 13.8 14.0428 13.8 13.625V9.19885C14.3319 8.94595 14.7 8.40325 14.7 7.77505V5.97505C14.7 5.76822 14.6592 5.56341 14.5801 5.37232C14.5009 5.18123 14.3849 5.00761 14.2387 4.86136C14.0924 4.7151 13.9188 4.59909 13.7277 4.51994C13.5366 4.44079 13.3318 4.40005 13.125 4.40005H12.63C12.8226 4.0227 12.915 3.60224 12.8986 3.17892C12.8821 2.7556 12.7573 2.34359 12.536 1.98233C12.3147 1.62106 12.0044 1.32265 11.6348 1.11564C11.2652 0.908635 10.8486 0.79997 10.425 0.800049C9.53939 0.800049 8.73839 1.17805 8.11199 1.90705C7.87025 2.19398 7.66471 2.50955 7.49999 2.84665C7.33514 2.51018 7.1296 2.19522 6.88799 1.90885C6.26069 1.17805 5.45969 0.800049 4.57499 0.800049C3.91858 0.800049 3.28905 1.06081 2.8249 1.52496C2.36075 1.98911 2.09999 2.61864 2.09999 3.27505ZM8.34689 4.40005H10.425C10.7234 4.40005 11.0095 4.28152 11.2205 4.07054C11.4315 3.85957 11.55 3.57342 11.55 3.27505C11.55 2.97668 11.4315 2.69053 11.2205 2.47955C11.0095 2.26858 10.7234 2.15005 10.425 2.15005C9.96059 2.15005 9.52499 2.33455 9.13799 2.78635C8.83469 3.13915 8.55659 3.66385 8.34689 4.40005ZM6.69089 5.75005H1.87499C1.81531 5.75005 1.75808 5.77375 1.71589 5.81595C1.67369 5.85815 1.64999 5.91537 1.64999 5.97505V7.77505C1.64999 7.89925 1.75079 8.00005 1.87499 8.00005H6.82499V5.75005H6.69089ZM8.17499 5.75005V8.00005H13.125C13.1847 8.00005 13.2419 7.97634 13.2841 7.93415C13.3263 7.89195 13.35 7.83472 13.35 7.77505V5.97505C13.35 5.91537 13.3263 5.85815 13.2841 5.81595C13.2419 5.77375 13.1847 5.75005 13.125 5.75005H8.17499ZM8.17499 9.35005H12.45V13.625C12.45 13.6847 12.4263 13.742 12.3841 13.7841C12.3419 13.8263 12.2847 13.85 12.225 13.85H8.17499V9.35005ZM6.82499 9.35005V13.85H2.77499C2.71531 13.85 2.65808 13.8263 2.61589 13.7841C2.57369 13.742 2.54999 13.6847 2.54999 13.625V9.35005H6.82499Z" fill="white"/>
</svg>
