<svg width="16" height="16" viewbox="0 0 16 16" fill="none" xmlns="http://www.w3.org/2000/svg">
<path fill-rule="evenodd" clip-rule="evenodd" d="M7.99994 3.09333C9.50216 3.09333 10.5155 3.74222 11.0933 4.28444L13.351 2.08C11.9644 0.791111 10.1599 0 7.99994 0C4.87105 0 2.16883 1.79556 0.853271 4.40889L3.43994 6.41778C4.08883 4.48889 5.88438 3.09333 7.99994 3.09333Z" fill="white"/>
<path fill-rule="evenodd" clip-rule="evenodd" d="M15.68 8.17791C15.68 7.52014 15.6267 7.04014 15.5111 6.54236H8V9.51125H12.4089C12.32 10.249 11.84 11.3601 10.7733 12.1068L13.2978 14.0624C14.8089 12.6668 15.68 10.6135 15.68 8.17791Z" fill="white"/>
<path fill-rule="evenodd" clip-rule="evenodd" d="M3.44889 9.58215C3.2741 9.07286 3.18401 8.53836 3.18222 7.99992C3.18222 7.44881 3.28 6.91548 3.44 6.4177L0.853333 4.40881C0.293101 5.52306 0.000893681 6.75277 0 7.99992C0 9.28881 0.311111 10.5066 0.853333 11.591L3.44889 9.58215Z" fill="white"/>
<path fill-rule="evenodd" clip-rule="evenodd" d="M7.99984 16.0001C10.1598 16.0001 11.9732 15.2889 13.2976 14.0623L10.7732 12.1067C10.0976 12.5778 9.19095 12.9067 7.99984 12.9067C5.88428 12.9067 4.08873 11.5112 3.44873 9.58228L0.862061 11.5912C2.17762 14.2045 4.87095 16.0001 7.99984 16.0001Z" fill="white"/>
</svg>
