<svg width="14" height="10" viewBox="0 0 14 10" fill="none" xmlns="http://www.w3.org/2000/svg">
<path d="M0.454529 5C0.454529 5 2.90907 0.5 6.99998 0.5C11.0909 0.5 13.5454 5 13.5454 5C13.5454 5 11.0909 9.5 6.99998 9.5C2.90907 9.5 0.454529 5 0.454529 5ZM6.99998 7.86364C7.75947 7.86364 8.48784 7.56193 9.02488 7.0249C9.56192 6.48786 9.86362 5.75948 9.86362 5C9.86362 4.24052 9.56192 3.51214 9.02488 2.9751C8.48784 2.43807 7.75947 2.13636 6.99998 2.13636C6.2405 2.13636 5.51212 2.43807 4.97509 2.9751C4.43805 3.51214 4.13635 4.24052 4.13635 5C4.13635 5.75948 4.43805 6.48786 4.97509 7.0249C5.51212 7.56193 6.2405 7.86364 6.99998 7.86364Z" fill="#8C899A"/>
</svg>
