<svg width="20" height="20" viewbox="0 0 20 20" fill="none" xmlns="http://www.w3.org/2000/svg">
<path fill-rule="evenodd" clip-rule="evenodd" d="M0.75 7.56769C0.75 4.26878 3.22104 1.88892 6.37764 1.88892C7.84871 1.88892 9.0893 2.45942 10.0019 3.37432C10.915 2.45838 12.1468 1.88892 13.6224 1.88892C16.779 1.88892 19.25 4.26878 19.25 7.56769C19.25 9.52923 18.3679 11.3861 16.9467 13.0713C15.5254 14.7566 13.5154 16.332 11.1186 17.7609L11.104 17.7696L11.0891 17.7779C10.9664 17.8454 10.8127 17.9208 10.6481 17.9818C10.5015 18.0363 10.2639 18.1111 10 18.1111C9.73593 18.1111 9.49824 18.0363 9.34997 17.9807C9.18422 17.9186 9.02843 17.8411 8.90192 17.7681L8.89035 17.7614L8.8904 17.7613C6.48933 16.3324 4.47706 14.757 3.05454 13.0716C1.63215 11.3863 0.75 9.52931 0.75 7.56769ZM6.37764 3.88892C4.31673 3.88892 2.75 5.38221 2.75 7.56769C2.75 8.90599 3.35086 10.3218 4.58292 11.7816C5.81366 13.2397 7.62496 14.6801 9.90656 16.0387C9.92768 16.0507 9.95194 16.0635 9.97747 16.0758C9.9856 16.0797 9.99355 16.0834 10.0012 16.0869C10.0358 16.0718 10.0734 16.0534 10.1107 16.0333C12.3837 14.6765 14.1898 13.2381 15.4179 11.7819C16.6491 10.322 17.25 8.90606 17.25 7.56769C17.25 5.38221 15.6833 3.88892 13.6224 3.88892C12.4364 3.88892 11.5251 4.46188 10.9267 5.40501C10.495 6.08545 9.49831 6.08137 9.0712 5.39986C8.48891 4.47074 7.5658 3.88892 6.37764 3.88892Z" fill="white"/>
</svg>
