<svg width="18" height="20" viewbox="0 0 18 20" fill="none" xmlns="http://www.w3.org/2000/svg">
<path fill-rule="evenodd" clip-rule="evenodd" d="M9.50016 4.16667C9.50016 1.86548 11.3656 0 13.6668 0C15.968 0 17.8335 1.86548 17.8335 4.16667V6.89394C17.8335 7.35418 17.4604 7.72727 17.0002 7.72727C16.5399 7.72727 16.1668 7.35418 16.1668 6.89394V4.16667C16.1668 2.78595 15.0475 1.66667 13.6668 1.66667C12.2861 1.66667 11.1668 2.78595 11.1668 4.16667V8.33333H12.0002C12.9206 8.33333 13.6668 9.07952 13.6668 10V16.6667C13.6668 18.5076 12.1744 20 10.3335 20H3.66683C1.82588 20 0.333496 18.5076 0.333496 16.6667V10C0.333496 9.07952 1.07969 8.33333 2.00016 8.33333H9.50016V4.16667ZM9.85372 12.8536C10.049 12.6583 10.049 12.3417 9.85372 12.1464C9.65845 11.9512 9.34187 11.9512 9.14661 12.1464L6.17356 15.1195L4.86032 13.7557C4.66878 13.5568 4.35225 13.5509 4.15334 13.7424C3.95443 13.9339 3.94846 14.2505 4.14 14.4494L5.80667 16.1802C5.89979 16.2769 6.02788 16.332 6.16211 16.3333C6.29635 16.3346 6.42546 16.2818 6.52038 16.1869L9.85372 12.8536Z" fill="white"/>
</svg>
