<svg width="75" height="12" viewBox="0 0 75 12" fill="none" xmlns="http://www.w3.org/2000/svg">
<path d="M0 11.8044H3.33032V7.57852H4.11401L6.4812 11.8044H10.0071L7.21582 6.91556C8.4397 6.43704 9.32153 5.49556 9.32153 3.81185V3.74815C9.32153 1.25481 7.62378 0 4.57105 0H0V11.8044ZM3.33032 5.38222V2.54222H4.42383C5.50122 2.54222 6.08936 2.92222 6.08936 3.88V3.94593C6.08936 4.9037 5.53418 5.38222 4.40479 5.38222H3.33032ZM14.8865 12C17.4653 12 18.9507 10.8941 19.2122 8.94519H16.47C16.3557 9.5237 15.947 9.96889 14.9839 9.96889C13.9395 9.96889 13.2861 9.30889 13.2048 8.16963H19.2107V7.3963C19.2107 4.29259 17.2031 2.93852 14.8682 2.93852C12.2908 2.93852 10.2539 4.68889 10.2539 7.46296V7.59481C10.2539 10.4178 12.2087 12 14.8865 12ZM13.2371 6.50518C13.3843 5.46519 13.9893 4.88889 14.8682 4.88889C15.8152 4.88889 16.3213 5.46741 16.3704 6.50741L13.2371 6.50518ZM23.8901 12C26.2573 12 27.7588 11.0785 27.7588 9.03111C27.7588 7.17926 26.6162 6.55481 24.249 6.25704C23.2046 6.12519 22.8127 5.96074 22.8127 5.54741C22.8127 5.15111 23.1387 4.87037 23.7759 4.87037C24.4446 4.87037 24.7551 5.15111 24.8694 5.72889H27.5142C27.3193 3.66518 25.8486 2.93852 23.7429 2.93852C21.7654 2.93852 20.0859 3.8637 20.0859 5.77852C20.0859 7.57852 21.0491 8.25481 23.335 8.55259C24.5068 8.71704 24.9185 8.91556 24.9185 9.32815C24.9185 9.75778 24.5918 10.0385 23.8733 10.0385C23.0413 10.0385 22.7637 9.69185 22.6655 9.06444H19.9717C20.0376 10.9793 21.46 12 23.8901 12ZM32.3401 12C32.8874 11.9906 33.431 11.9074 33.9565 11.7526V9.50963C33.6909 9.61243 33.4082 9.66272 33.1238 9.65778C32.5686 9.65778 32.2588 9.37704 32.2588 8.74963V5.18518H33.9434V3.16963H32.2588V1.37037H29.3364V3.16963H28.311V5.18518H29.3364V9.03185C29.3364 11.0615 30.4138 12 32.3401 12ZM35.2896 11.8015H38.2119V7.71037C38.2119 6.3237 39.1912 5.76222 40.9709 5.81185V3.05407C39.6482 3.03704 38.751 3.59926 38.2119 4.88889V3.16963H35.2896V11.8015ZM46.3718 12C48.9514 12 50.4368 10.8941 50.6982 8.94519H47.9553C47.8411 9.5237 47.4331 9.96889 46.47 9.96889C45.4248 9.96889 44.7722 9.30889 44.6902 8.16963H50.696V7.3963C50.696 4.29259 48.6877 2.93852 46.3535 2.93852C43.7739 2.93852 41.7334 4.68889 41.7334 7.46296V7.59481C41.7356 10.4178 43.6948 12 46.3718 12ZM44.7231 6.50518C44.8696 5.46815 45.4739 4.88667 46.3557 4.88667C47.302 4.88667 47.8088 5.46519 47.8572 6.50518H44.7231ZM54.4285 12C55.8003 12 56.5525 11.4222 56.959 10.7948V11.8015H59.7993V6.20815C59.7993 3.91185 58.2979 2.93852 55.9468 2.93852C53.6125 2.93852 51.9961 3.96222 51.8657 6.04296H54.6086C54.6738 5.49778 54.9675 5.01926 55.7673 5.01926C56.6982 5.01926 56.8938 5.5637 56.8938 6.38963V6.58741H56.0779C53.2368 6.58741 51.5369 7.38 51.5369 9.41111C51.5391 11.2437 52.894 12 54.4285 12ZM55.4407 10C54.7551 10 54.4285 9.68667 54.4285 9.19111C54.4285 8.48074 54.9514 8.24963 56.1262 8.24963H56.8938V8.77852C56.8938 9.52667 56.2734 10.0052 55.4443 10.0052L55.4407 10ZM61.4663 11.7993H64.3887V6.80222C64.3887 5.86148 64.9116 5.34963 65.6946 5.34963C66.3647 5.34963 66.7888 5.77852 66.7888 6.65333V11.8044H69.6782V6.80222C69.6782 5.86148 70.2004 5.34963 70.9841 5.34963C71.6536 5.34963 72.0776 5.77852 72.0776 6.65333V11.8044H75V6.15852C75 3.99556 73.8281 2.93852 72.2087 2.93852C71.1314 2.93852 70.1191 3.36815 69.3845 4.37556C68.9758 3.43407 68.1929 2.93852 67.0664 2.93852C65.7437 2.93852 64.8464 3.66518 64.3887 4.49407V3.16963H61.4663V11.7993Z" fill="#FFF"/>
</svg>
