<svg width="18" height="18" viewBox="0 0 18 18" fill="none" xmlns="http://www.w3.org/2000/svg">
<path fill-rule="evenodd" clip-rule="evenodd" d="M8.25 3C5.3505 3 3 5.3505 3 8.25C3 11.1495 5.3505 13.5 8.25 13.5C11.1495 13.5 13.5 11.1495 13.5 8.25C13.5 5.3505 11.1495 3 8.25 3ZM1.5 8.25C1.5 4.52208 4.52208 1.5 8.25 1.5C11.9779 1.5 15 4.52208 15 8.25C15 11.9779 11.9779 15 8.25 15C4.52208 15 1.5 11.9779 1.5 8.25Z" fill="white"/>
<path fill-rule="evenodd" clip-rule="evenodd" d="M11.9575 11.9571C12.2504 11.6642 12.7252 11.6642 13.0181 11.9571L16.2806 15.2196C16.5735 15.5125 16.5735 15.9874 16.2806 16.2803C15.9877 16.5732 15.5129 16.5732 15.22 16.2803L11.9575 13.0178C11.6646 12.7249 11.6646 12.25 11.9575 11.9571Z" fill="white"/>
</svg>
