<svg width="20" height="20" viewbox="0 0 20 20" fill="none" xmlns="http://www.w3.org/2000/svg">
<path fill-rule="evenodd" clip-rule="evenodd" d="M1.33398 10.0001C1.33398 5.21366 5.21418 1.33347 10.0007 1.33347C14.7871 1.33347 18.6673 5.21366 18.6673 10.0001C18.6673 12.3102 17.7635 14.4091 16.2903 15.9627C16.5617 15.4544 16.7268 14.9108 16.7268 14.4298C16.7268 13.2195 15.2006 12.4531 14.0409 12.0236C13.0788 13.6016 11.6875 14.7918 10.0006 14.7918C8.31592 14.7918 6.92605 13.6048 5.96406 12.0298C4.83455 12.4601 3.36731 13.2244 3.36731 14.4298C3.36731 14.9553 3.54829 15.5554 3.84686 16.1028C2.29351 14.5365 1.33398 12.3804 1.33398 10.0001ZM10.0007 0.333466C4.6619 0.333466 0.333984 4.66138 0.333984 10.0001C0.333984 15.3389 4.6619 19.6668 10.0007 19.6668C15.3394 19.6668 19.6673 15.3389 19.6673 10.0001C19.6673 4.66138 15.3394 0.333466 10.0007 0.333466ZM14.1223 6.45364C14.1223 8.30093 13.6659 10.1317 12.9055 11.4827C12.0557 12.8269 11.0246 13.5418 10.0006 13.5418C8.97656 13.5418 7.94538 12.8268 7.09562 11.4826C6.33525 10.1316 5.87984 8.30088 5.87984 6.45364C5.87984 4.75456 7.68869 3.33347 10.0006 3.33347C12.3125 3.33347 14.1223 4.75456 14.1223 6.45364Z" fill="#C39553"/>
</svg>
