<svg width="212" height="256" viewBox="0 0 212 256" fill="none" xmlns="http://www.w3.org/2000/svg">
<path d="M69.99 121.74C82.7699 121.74 93.13 111.38 93.13 98.6C93.13 85.8201 82.7699 75.46 69.99 75.46C57.2101 75.46 46.85 85.8201 46.85 98.6C46.85 111.38 57.2101 121.74 69.99 121.74Z" fill="white"/>
<path d="M69.99 123.24C56.4 123.24 45.35 112.19 45.35 98.6C45.35 85.01 56.4 73.96 69.99 73.96C83.58 73.96 94.63 85.01 94.63 98.6C94.63 112.19 83.58 123.24 69.99 123.24ZM69.99 76.96C58.06 76.96 48.35 86.67 48.35 98.6C48.35 110.53 58.06 120.24 69.99 120.24C81.92 120.24 91.63 110.53 91.63 98.6C91.63 86.67 81.93 76.96 69.99 76.96Z" fill="#8F732A"/>
<path d="M52.75 83.74C59.17 83.74 64.37 90.39 64.37 98.6C64.37 106.81 59.17 113.46 52.75 113.46" fill="white"/>
<path d="M52.75 114.96C51.92 114.96 51.25 114.29 51.25 113.46C51.25 112.63 51.92 111.96 52.75 111.96C58.33 111.96 62.87 105.97 62.87 98.6C62.87 91.23 58.33 85.24 52.75 85.24C51.92 85.24 51.25 84.57 51.25 83.74C51.25 82.91 51.92 82.24 52.75 82.24C59.98 82.24 65.87 89.58 65.87 98.6C65.87 107.62 59.99 114.96 52.75 114.96Z" fill="#8F732A"/>
<path d="M87.23 113.46C80.81 113.46 75.61 106.81 75.61 98.6C75.61 90.39 80.81 83.74 87.23 83.74" fill="white"/>
<path d="M87.23 114.96C80 114.96 74.11 107.62 74.11 98.6C74.11 89.58 79.99 82.24 87.23 82.24C88.06 82.24 88.73 82.91 88.73 83.74C88.73 84.57 88.06 85.24 87.23 85.24C81.65 85.24 77.11 91.23 77.11 98.6C77.11 105.97 81.65 111.96 87.23 111.96C88.06 111.96 88.73 112.63 88.73 113.46C88.73 114.29 88.06 114.96 87.23 114.96Z" fill="#8F732A"/>
<path d="M106.777 141.248L103.947 142.246L143.305 253.881L146.135 252.883L106.777 141.248Z" fill="#DDDDDD"/>
<path d="M197.12 255.54H13.62C13.04 255.54 12.51 255.21 12.26 254.68C12.01 254.15 12.09 253.54 12.45 253.09L104.2 140.77C104.77 140.07 105.95 140.07 106.52 140.77L198.27 253.09C198.64 253.54 198.71 254.16 198.46 254.68C198.21 255.2 197.7 255.54 197.12 255.54ZM16.79 252.54H193.96L105.37 144.09L16.79 252.54Z" fill="white"/>
<path d="M165.87 101.96C165.87 101.96 153.33 130.22 128.78 138.66C104.23 147.1 76.96 132.53 76.96 132.53C76.96 132.53 89.5 104.27 114.05 95.83C138.6 87.39 165.87 101.96 165.87 101.96Z" fill="white"/>
<path d="M112.05 142.82C93.3 142.82 77.13 134.33 76.26 133.86C75.57 133.49 75.28 132.65 75.6 131.93C76.12 130.75 88.69 102.97 113.57 94.42C138.45 85.86 165.45 100.03 166.58 100.64C167.27 101.01 167.56 101.85 167.24 102.57C166.72 103.75 154.15 131.53 129.27 140.08C123.53 142.05 117.67 142.82 112.05 142.82ZM78.96 131.85C84.59 134.52 107.63 144.35 128.29 137.25C148.98 130.13 161.08 108.22 163.87 102.65C158.24 99.98 135.2 90.15 114.53 97.25C93.8701 104.35 81.75 126.28 78.96 131.85Z" fill="#8F732A"/>
<path d="M121.42 139.89C133.929 139.89 144.07 129.749 144.07 117.24C144.07 104.731 133.929 94.59 121.42 94.59C108.911 94.59 98.77 104.731 98.77 117.24C98.77 129.749 108.911 139.89 121.42 139.89Z" fill="#8F732A"/>
<path d="M101.65 76.25H75.1C74.27 76.25 73.6 75.58 73.6 74.75V48.2C73.6 47.37 74.27 46.7 75.1 46.7H101.65C102.48 46.7 103.15 47.37 103.15 48.2V74.75C103.15 75.58 102.48 76.25 101.65 76.25ZM76.59 73.25H100.14V49.7H76.59V73.25Z" fill="#8F732A"/>
<path d="M189.92 63.47C189.77 63.47 189.62 63.45 189.48 63.4L22.2 11.54C21.41 11.29 20.97 10.45 21.21 9.66001C21.46 8.87001 22.29 8.43002 23.09 8.67002L190.36 60.52C191.15 60.77 191.59 61.61 191.35 62.4C191.15 63.05 190.56 63.47 189.92 63.47Z" fill="#8F732A"/>
<path d="M185.93 76.33C185.78 76.33 185.63 76.31 185.49 76.26L18.22 24.41C17.43 24.16 16.99 23.32 17.23 22.53L23.61 1.94C23.73 1.56 23.99 1.24 24.34 1.06C24.69 0.87 25.1 0.840014 25.48 0.950014L85.96 19.7C86.75 19.95 87.19 20.79 86.95 21.58C86.71 22.37 85.87 22.82 85.07 22.57L26.03 4.26999L20.54 21.99L186.38 73.4C187.17 73.65 187.61 74.49 187.37 75.28C187.16 75.92 186.57 76.33 185.93 76.33Z" fill="#8F732A"/>
<path d="M209.81 76.62C209.8 76.62 209.79 76.62 209.79 76.62L186.03 76.24C185.2 76.23 184.54 75.54 184.55 74.72C184.56 73.89 185.28 73.25 186.07 73.24L204.7 73.54L189.17 63.25C188.48 62.79 188.29 61.86 188.75 61.17C189.21 60.48 190.14 60.29 190.83 60.75L210.64 73.87C211.2 74.24 211.44 74.93 211.24 75.56C211.05 76.19 210.47 76.62 209.81 76.62Z" fill="#8F732A"/>
<path d="M18.58 21.57C18.43 21.57 18.28 21.55 18.14 21.5L4.15004 17.16C2.81004 16.74 1.69999 15.82 1.03999 14.57C0.37999 13.32 0.249985 11.89 0.659985 10.54L0.810009 10.06C1.67001 7.26998 4.64 5.70999 7.43 6.56999L21.42 10.91C22.21 11.16 22.65 12 22.41 12.79C22.17 13.58 21.33 14.03 20.53 13.78L6.53999 9.43999C5.33999 9.06999 4.05 9.73999 3.68 10.95L3.53004 11.43C3.35004 12.01 3.41002 12.63 3.70002 13.17C3.99002 13.71 4.45999 14.11 5.03999 14.29L19.03 18.63C19.82 18.88 20.26 19.72 20.02 20.51C19.82 21.16 19.22 21.57 18.58 21.57Z" fill="#8F732A"/>
</svg>
