<svg width="276" height="227" viewBox="0 0 276 227" fill="none" xmlns="http://www.w3.org/2000/svg">
<path d="M122.74 112.91C122.5 112.91 122.27 112.85 122.05 112.74C110.95 107 109.08 97.55 108.2 89.13C108.14 88.52 108.45 87.94 108.98 87.65C109.52 87.36 110.18 87.4299 110.65 87.8199C119.95 95.5499 122.59 101.98 124.22 111.14C124.32 111.7 124.09 112.27 123.63 112.61C123.37 112.81 123.06 112.91 122.74 112.91ZM111.7 92.77C112.65 98.58 114.67 104.23 120.6 108.37C119.23 102.48 117 97.88 111.7 92.77Z" fill="#8F732A"/>
<path d="M75.86 163.79C75.62 163.79 75.39 163.73 75.17 163.62C60.02 155.78 57.45 142.82 56.24 131.29C56.18 130.68 56.49 130.1 57.02 129.81C57.56 129.52 58.22 129.59 58.69 129.98C71.47 140.6 75.1 149.44 77.33 162.02C77.43 162.58 77.2 163.15 76.74 163.49C76.48 163.7 76.17 163.79 75.86 163.79ZM59.69 134.83C60.97 144.01 63.79 153.04 73.77 159.37C71.76 149.92 68.5 142.9 59.69 134.83Z" fill="#8F732A"/>
<path d="M223.12 185.67C222.74 185.67 222.36 185.53 222.07 185.24C221.5 184.68 221.48 183.79 221.99 183.2C229.78 167.3 236.86 150.51 230.71 135.35C227.26 126.84 220.34 120.77 213.02 114.34C209.09 110.89 205.02 107.32 201.55 103.34C188.89 88.83 185.19 70.1401 184.32 57.0201C183.86 50.1201 183.97 42.69 184.65 34.33C184.85 31.82 185.23 29.2601 185.58 26.7901C186.15 22.8301 186.75 18.74 186.65 14.84C186.59 12.51 185.78 10.8901 184.36 10.3001C182.74 9.62011 180.49 10.3101 178.62 12.0501C176.82 13.7301 173.38 19.55 170.62 24.23C166.3 31.55 165.69 32.4701 164.34 32.3801C152.82 31.4801 135.36 28.9801 127.19 27.5301C126.77 27.4601 126.41 27.21 126.18 26.85C125.95 26.49 125.89 26.0501 126.01 25.6501C126.6 23.5601 127.5 21.1201 128.46 18.5301C130.17 13.9001 132.51 7.56 131.74 5.57C131.06 3.83 130.17 3.5101 129.56 3.4201C125.21 2.7901 116.58 11.4401 112.16 17.0501C108.74 21.4001 105.18 25.7301 101.75 29.9101C95.1 38.0101 88.22 46.3901 82.09 55.1801C72.77 68.5501 64.26 82.68 56.79 97.19C42.72 124.51 32.17 153.37 25.44 182.96C25.26 183.77 24.46 184.27 23.64 184.09C22.83 183.91 22.33 183.1 22.51 182.29C29.3 152.45 39.94 123.35 54.12 95.8101C61.65 81.1801 70.23 66.93 79.63 53.46C85.83 44.57 92.74 36.1501 99.43 28.0001C102.86 23.8301 106.4 19.51 109.81 15.19C111.09 13.57 122.51 -0.669993 130.01 0.450007C131.45 0.660007 133.4 1.53004 134.55 4.48004C135.66 7.32004 133.98 12.3 131.29 19.57C130.6 21.45 129.93 23.2501 129.4 24.8701C137.88 26.3101 153.29 28.47 163.96 29.35C164.76 28.31 166.57 25.24 168.05 22.72C171.06 17.62 174.46 11.8501 176.58 9.87005C179.35 7.28005 182.78 6.3901 185.53 7.5401C188.06 8.6101 189.57 11.2401 189.65 14.7801C189.75 18.9301 189.14 23.15 188.55 27.24C188.2 29.67 187.83 32.18 187.64 34.6C186.97 42.81 186.86 50.09 187.31 56.85C188.15 69.51 191.7 87.5101 203.81 101.39C207.15 105.22 211.14 108.72 215 112.11C222.26 118.49 229.77 125.09 233.49 134.25C240.11 150.58 232.4 168.81 224.65 184.62C224.53 184.86 224.38 185.07 224.2 185.26C223.89 185.52 223.5 185.67 223.12 185.67Z" fill="white"/>
<path d="M141.87 180.21C164.36 146.61 194.07 117.87 228.38 96.48C236.81 91.22 247.89 87.2 257.68 85.77C273.75 83.43 279.53 95.89 267.59 106.62C242.94 128.77 214.29 148.52 194.65 175.56" fill="#8F732A"/>
<path d="M141.87 181.71C141.58 181.71 141.29 181.63 141.04 181.46C140.35 181 140.17 180.07 140.63 179.38C163.16 145.73 193.23 116.63 227.6 95.2099C236.21 89.8399 247.38 85.76 257.48 84.29C265.59 83.11 272.12 85.55 274.52 90.67C276.91 95.77 274.65 102.31 268.61 107.74C261.71 113.94 254.37 120.06 247.27 125.98C228.91 141.28 209.93 157.11 195.89 176.44C195.4 177.11 194.46 177.26 193.8 176.77C193.13 176.28 192.98 175.35 193.47 174.67C207.74 155.03 226.86 139.08 245.36 123.67C252.44 117.77 259.76 111.67 266.62 105.5C271.64 100.99 273.63 95.79 271.82 91.93C270 88.05 264.68 86.26 257.93 87.24C248.22 88.66 237.48 92.58 229.2 97.74C195.19 118.93 165.43 147.73 143.14 181.03C142.83 181.48 142.35 181.71 141.87 181.71Z" fill="#8F732A"/>
<path d="M72.37 180.52C72.27 180.52 72.16 180.51 72.05 180.49C71.24 180.32 70.72 179.52 70.9 178.71C77.89 146.16 87.21 113.79 98.61 82.5C98.89 81.72 99.75 81.32 100.53 81.6C101.31 81.88 101.71 82.7401 101.43 83.5201C90.08 114.68 80.8 146.91 73.84 179.33C73.68 180.04 73.06 180.52 72.37 180.52Z" fill="#8F732A"/>
<path d="M93.69 188.25C93.56 188.25 93.42 188.23 93.28 188.19C92.48 187.97 92.02 187.14 92.24 186.34C104.66 142.07 124.73 100.82 151.88 63.7199C152.37 63.0499 153.31 62.9 153.98 63.4C154.65 63.89 154.79 64.83 154.3 65.5C127.36 102.3 107.45 143.24 95.12 187.15C94.95 187.82 94.34 188.25 93.69 188.25Z" fill="#8F732A"/>
<path d="M113.474 63.1744C118.18 51.9845 119.575 41.8963 116.592 40.6419C113.609 39.3875 107.376 47.4418 102.671 58.6317C97.9658 69.8217 96.5699 79.9098 99.5532 81.1642C102.536 82.4187 108.769 74.3643 113.474 63.1744Z" fill="#8F732A"/>
<path d="M100.25 82.8C99.82 82.8 99.4 82.72 99 82.55C96.81 81.63 96.06 78.56 96.77 73.42C97.38 69.04 98.99 63.58 101.31 58.05C105.69 47.62 112.53 37.3 117.2 39.26C121.86 41.22 119.27 53.33 114.88 63.76C112.55 69.29 109.78 74.26 107.08 77.76C104.49 81.11 102.2 82.8 100.25 82.8ZM115.86 42C114.36 42 109.09 47.3099 104.08 59.2199C101.85 64.5199 100.31 69.7099 99.74 73.8399C99.12 78.3299 99.93 79.7 100.16 79.79C100.4 79.89 101.94 79.51 104.71 75.93C107.26 72.63 109.89 67.8999 112.12 62.5999C117.36 50.1399 117.24 42.54 116.04 42.03C115.99 42.01 115.93 42 115.86 42Z" fill="#8F732A"/>
<path d="M160.439 64.8433C167.382 54.8855 170.859 45.3124 168.204 43.4611C165.549 41.6099 157.768 48.1816 150.825 58.1394C143.881 68.0972 140.404 77.6703 143.059 79.5215C145.714 81.3727 153.495 74.8011 160.439 64.8433Z" fill="#8F732A"/>
<path d="M144.05 81.3199C143.34 81.3199 142.71 81.14 142.15 80.75C138 77.86 143.07 66.56 149.54 57.28C156.01 48 164.87 39.3399 169.01 42.2299C173.16 45.1199 168.09 56.4199 161.62 65.6999C156.02 73.7399 148.62 81.3199 144.05 81.3199ZM166.95 44.6099C165.21 44.6099 159.13 48.78 152 59C144.27 70.08 142.79 77.55 143.86 78.29C144.93 79.03 151.42 75.0699 159.15 63.9899C166.88 52.9099 168.36 45.4399 167.29 44.6999C167.21 44.6399 167.1 44.6099 166.95 44.6099Z" fill="#8F732A"/>
<path d="M264.9 176.38H2.01001V224.74H264.9V176.38Z" fill="#8F732A"/>
<path d="M264.9 226.24H2.01001C1.18001 226.24 0.51001 225.57 0.51001 224.74V176.38C0.51001 175.55 1.18001 174.88 2.01001 174.88H264.9C265.73 174.88 266.4 175.55 266.4 176.38V224.74C266.4 225.56 265.73 226.24 264.9 226.24ZM3.51001 223.24H263.4V177.88H3.51001V223.24Z" fill="#8F732A"/>
<path d="M264.9 185.87H2.01001V188.87H264.9V185.87Z" fill="white"/>
<path d="M264.9 226.24H2.01001C1.18001 226.24 0.51001 225.57 0.51001 224.74V176.38C0.51001 175.55 1.18001 174.88 2.01001 174.88H264.9C265.73 174.88 266.4 175.55 266.4 176.38V224.74C266.4 225.56 265.73 226.24 264.9 226.24ZM3.51001 223.24H263.4V177.88H3.51001V223.24Z" fill="#8F732A"/>
</svg>
