<svg width="1006" height="1376" viewBox="0 0 1006 1376" fill="none" xmlns="http://www.w3.org/2000/svg">
<path d="M817.399 1293.21C858.662 1324.61 887.659 1346.12 887.659 1346.12L880.478 1365C880.478 1365 841.517 1342.83 787.666 1312.61L817.399 1293.21Z" fill="#8F732A" stroke="#8F732A" stroke-width="12" stroke-miterlimit="10" stroke-linecap="round" stroke-linejoin="round"/>
<path d="M780.79 1268C829.071 1303.43 863 1327.7 863 1327.7L854.597 1349C854.597 1349 809.009 1323.99 746 1289.88L780.79 1268Z" fill="#8F732A" stroke="#8F732A" stroke-width="12" stroke-miterlimit="10" stroke-linecap="round" stroke-linejoin="round"/>
<path d="M243.527 6.64642C203.164 67.5971 183.559 159.052 170.747 236.433C157.686 315.322 150.174 397.888 173.911 475.061C196.774 549.386 240.722 611.809 254.327 690.84C258.074 712.608 264.984 768.845 243.334 773.847C223.115 778.516 184.351 745.058 167.736 731.768C143.935 712.729 125.444 686.581 113.235 655.537C88.8096 593.437 82.7016 483.033 6.85226 472.032C41.9776 534.152 50.5136 642.851 55.6243 717.169C75.4496 1005.5 330.959 1297.8 541.182 1119.43C576.999 1089.03 608.234 1049.17 633.092 1003.46C675.891 924.765 698.58 828.126 699.211 731.285C699.764 646.458 641.079 486.564 636.424 437.186C611.522 486.741 629.014 540.665 625.271 576.512C624.818 580.85 624.002 585.854 621.036 587.778C615.663 591.265 611.055 581.529 609.52 573.858C596.659 509.548 577.146 459.113 565.088 394.628C552.422 345.582 539.263 310.117 511.887 272.512C482.84 232.613 458.215 226.574 411.555 149.968C420.083 209.21 443.794 262.264 463.122 316.856C475.144 350.817 486.824 389.234 489.97 428.022C491.6 448.138 493.124 527.528 464.238 520.665C459 519.421 455.15 513.629 451.862 508.078C402.384 424.549 371.142 330.224 361.024 225.84C355.739 171.305 358.603 113.009 358.764 62.7305C307.76 139.941 317.5 342.712 349.862 480.397C352.312 490.822 366.896 541.757 354.264 549.734C342.935 556.668 285.383 418.673 279.808 406.364C243.644 326.513 219.718 261.757 225.426 166.978C227.41 134.024 233.052 62.5371 243.527 6.64642Z" stroke="white" stroke-width="12" stroke-miterlimit="10" stroke-linecap="round" stroke-linejoin="round"/>
<path d="M574.006 1096.71C543.457 1067.87 546.91 1005.61 559.393 961.368C571.877 917.124 597.856 835.628 580.004 794.134C569.004 837.278 539.981 909.157 514.313 942.061C530.129 830.345 544.585 708.28 498.173 609.668C508.492 703.134 494.86 793.418 470.888 883.185C465.732 781.858 424.704 662.292 390.849 588.134C394.512 672.29 406.45 823.262 410.113 907.42C378.934 805.645 351.729 699.252 291.377 615.68C292.341 685.73 319.664 750.656 338.92 816.774C358.176 882.893 368.709 960.082 338.556 1020.02C291.504 968.88 239.666 865.297 203.456 859.018C234.881 912.54 254.268 974.864 282.512 1030.89C310.754 1086.93 400.294 1202.02 453.674 1215.02C483.11 1222.19 493.257 1179.52 522.421 1170.89C550.672 1162.53 549.861 1116.24 574.006 1096.71Z" fill="#8F732A"/>
<path d="M574.006 1096.71C543.457 1067.87 546.91 1005.61 559.393 961.368C571.877 917.124 597.856 835.628 580.004 794.134C569.004 837.278 539.981 909.157 514.313 942.061C530.129 830.345 544.585 708.28 498.173 609.668C508.492 703.134 494.86 793.418 470.888 883.185C465.732 781.858 424.704 662.292 390.849 588.134C394.512 672.29 406.45 823.262 410.113 907.42C378.934 805.645 351.729 699.252 291.377 615.68C292.341 685.73 319.664 750.656 338.92 816.774C358.176 882.893 368.709 960.082 338.556 1020.02C291.504 968.88 239.666 865.297 203.456 859.018C234.881 912.54 254.268 974.864 282.512 1030.89C310.754 1086.93 400.294 1202.02 453.674 1215.02C483.11 1222.19 493.257 1179.52 522.421 1170.89C550.672 1162.53 549.861 1116.24 574.006 1096.71Z" stroke="#8F732A" stroke-width="12" stroke-miterlimit="10" stroke-linecap="round" stroke-linejoin="round"/>
<path d="M940.078 939.942C957.811 990.725 979.173 1115.71 996.906 1166.49C1004.73 1087.49 990.271 950.574 981.039 871.736C979.155 855.652 976.491 838.609 966.154 826.457C955.931 814.44 924.731 818.48 924.625 816.636C923.462 796.668 937.038 771.454 940.398 752.317C944.913 726.597 945.929 699.98 937.478 674.96C932.346 659.766 922.394 644.6 907.279 640.898C889.755 636.605 871.806 649.962 864.03 666.798C856.253 683.633 856.201 703.041 856.301 721.708C856.407 741.702 865.967 795.469 850.957 809.012C836.218 822.309 810.171 808.55 794.983 832.846C782.129 853.408 779.365 878.808 776.938 903.18C769.97 973.16 757.411 1084.07 750.443 1154.05C779.061 1097.55 807.742 1014.76 825.243 938.804C818.847 1037.39 826.842 1135.1 824.929 1233.89C777.777 1267.47 726.167 1313.6 698.529 1365.52C727.685 1371.45 763.058 1367.5 792.274 1369.28C770.485 1354.76 748.303 1352.44 756.183 1339C764.062 1325.56 824.521 1288.48 837.657 1280.61C875.045 1258.22 870.822 1233.82 873.973 1189.19C877.085 1145.09 879.547 1102.88 881.597 1058.69C885.531 1100.07 891.667 1168.19 905.398 1207.27C910.154 1220.8 915.551 1234.5 915.67 1248.9C916.039 1293.34 892.866 1322.55 881.643 1365.44C926.761 1367.89 922.418 1368.41 967.577 1366.99C953.521 1362.19 938.058 1348.33 922.891 1340.78C971.014 1251.7 954.726 1133.02 926.798 1023.02L940.078 939.942Z" stroke="white" stroke-width="12" stroke-miterlimit="10" stroke-linecap="round" stroke-linejoin="round"/>
<path d="M557.332 1080C596.537 1121.75 702.715 1205.82 784.727 1268.89L754.857 1295.52C670.316 1248.21 570.047 1192.65 541.107 1178.96C588.084 1233.59 715.465 1338.96 715.465 1338.96L702.087 1368.39C702.087 1368.39 540.123 1295.74 400 1181.28" fill="#8F732A"/>
<path d="M557.332 1080C596.537 1121.75 702.715 1205.82 784.727 1268.89L754.857 1295.52C670.316 1248.21 570.047 1192.65 541.107 1178.96C588.084 1233.59 715.465 1338.96 715.465 1338.96L702.087 1368.39C702.087 1368.39 540.123 1295.74 400 1181.28" stroke="#8F732A" stroke-width="12" stroke-miterlimit="10" stroke-linecap="round" stroke-linejoin="round"/>
</svg>
