<svg width="236" height="248" viewBox="0 0 236 248" fill="none" xmlns="http://www.w3.org/2000/svg">
<path d="M54.52 247.1C44.7 247.1 35.04 243.09 28.98 236.26C16.01 221.64 16.68 199.52 23.22 183.11C15.98 184.23 8.61999 184.42 1.31999 183.69C0.839989 183.64 0.409975 183.35 0.179974 182.92C-0.0400255 182.49 -0.0400212 181.97 0.199979 181.55C17.39 150.97 38.11 122.33 61.78 96.45C76.21 80.68 94.03 63.31 116.83 54.09C131.17 48.29 146.77 46.63 160.76 49.4C161.54 49.55 162.05 50.32 161.9 51.1C161.74 51.88 160.99 52.39 160.2 52.24C146.75 49.57 131.74 51.19 117.91 56.77C95.65 65.77 78.12 82.86 63.91 98.4C40.88 123.57 20.67 151.36 3.80998 181.02C10.99 181.55 18.21 181.16 25.3 179.84C25.83 179.74 26.37 179.95 26.7 180.37C27.03 180.79 27.1 181.36 26.88 181.85C19.79 197.61 18.35 219.96 31.12 234.36C37.51 241.57 48.36 245.33 58.77 243.95C67.26 242.82 74.01 238.38 77.31 231.76C77.67 231.05 78.53 230.76 79.25 231.11C79.96 231.47 80.25 232.33 79.9 233.05C76.17 240.55 68.61 245.57 59.16 246.82C57.63 247 56.07 247.1 54.52 247.1Z" fill="#8F732A"/>
<path d="M150.32 160.86C127.51 160.86 109.38 141.64 108.62 140.82L107.71 139.84L108.62 138.86C109.38 138.04 127.51 118.82 150.32 118.82C173.13 118.82 191.26 138.04 192.02 138.86L192.93 139.84L192.02 140.82C191.26 141.63 173.13 160.86 150.32 160.86ZM111.71 139.83C115.73 143.74 131.65 157.97 150.32 157.97C168.99 157.97 184.91 143.74 188.93 139.83C184.91 135.92 168.99 121.69 150.32 121.69C131.65 121.69 115.73 135.92 111.71 139.83Z" fill="white"/>
<path d="M150.32 159.41C161.134 159.41 169.9 150.644 169.9 139.83C169.9 129.016 161.134 120.25 150.32 120.25C139.506 120.25 130.74 129.016 130.74 139.83C130.74 150.644 139.506 159.41 150.32 159.41Z" fill="white"/>
<path d="M65.96 153.24C51.78 153.24 40.54 141.32 40.07 140.82C39.55 140.27 39.55 139.41 40.07 138.85C40.54 138.34 51.78 126.43 65.96 126.43C80.14 126.43 91.38 138.35 91.85 138.85C92.37 139.4 92.37 140.26 91.85 140.82C91.38 141.32 80.14 153.24 65.96 153.24ZM43.19 139.83C46.15 142.62 55.33 150.35 65.97 150.35C76.63 150.35 85.79 142.62 88.75 139.83C85.79 137.05 76.61 129.31 65.97 129.31C55.33 129.31 46.15 137.04 43.19 139.83Z" fill="#8F732A"/>
<path d="M65.96 151.79C72.5653 151.79 77.92 146.435 77.92 139.83C77.92 133.225 72.5653 127.87 65.96 127.87C59.3547 127.87 54 133.225 54 139.83C54 146.435 59.3547 151.79 65.96 151.79Z" fill="#8F732A"/>
<path d="M194.58 179.69C192.92 179.69 191.26 179.49 189.65 179.07C188.88 178.87 188.42 178.08 188.62 177.31C188.82 176.54 189.61 176.08 190.38 176.28C196.6 177.89 203.92 175.61 208.62 170.6C213.07 165.85 215.28 158.81 214.55 151.77C214.32 149.55 213.84 147.94 213.03 146.7C211.64 144.57 208.91 143.24 206.09 143.31C203.44 143.38 200.74 144.57 198.47 146.66C197.88 147.2 196.97 147.17 196.43 146.58C195.89 145.99 195.92 145.08 196.51 144.54C199.29 141.97 202.66 140.51 206.01 140.42C209.82 140.32 213.53 142.16 215.45 145.12C216.51 146.75 217.14 148.77 217.42 151.46C218.24 159.32 215.74 167.21 210.73 172.57C206.46 177.13 200.48 179.69 194.58 179.69Z" fill="#8F732A"/>
<path d="M234.5 206.76H178.44C177.64 206.76 177 206.11 177 205.32C177 204.53 177.65 203.88 178.44 203.88H234.5C235.3 203.88 235.94 204.53 235.94 205.32C235.94 206.11 235.3 206.76 234.5 206.76Z" fill="#8F732A"/>
<path d="M107.42 206.76H85.21C84.41 206.76 83.77 206.11 83.77 205.32C83.77 204.53 84.42 203.88 85.21 203.88H107.42C108.22 203.88 108.86 204.53 108.86 205.32C108.86 206.11 108.21 206.76 107.42 206.76Z" fill="#8F732A"/>
<path d="M178.44 205.21H216.65L176.86 211.41L178.44 205.21Z" fill="#8F732A"/>
<path d="M89.17 73.08C88.45 73.08 87.83 72.54 87.74 71.81C87.64 71.02 88.21 70.3 89 70.2C111.61 67.47 137.66 62.91 159.52 49.86C160.21 49.45 161.09 49.67 161.5 50.36C161.91 51.05 161.69 51.93 161 52.34C138.68 65.67 112.26 70.3 89.35 73.07C89.28 73.08 89.22 73.08 89.17 73.08Z" fill="#8F732A"/>
<path d="M165.142 99.0078L129.426 210.368L132.177 211.25L167.894 99.8904L165.142 99.0078Z" fill="white"/>
<path d="M176.51 212.22H108.82C108.02 212.22 107.38 211.57 107.38 210.78V103.01C107.38 102.21 108.03 101.57 108.82 101.57H198.67C199.1 101.57 199.52 101.77 199.79 102.1C200.06 102.44 200.17 102.88 200.09 103.3L177.93 211.07C177.78 211.74 177.19 212.22 176.51 212.22ZM110.26 209.33H175.33L196.89 104.45H110.26V209.33Z" fill="white"/>
<path d="M153.04 110.72C178.235 110.72 198.66 107.268 198.66 103.01C198.66 98.7519 178.235 95.3 153.04 95.3C127.845 95.3 107.42 98.7519 107.42 103.01C107.42 107.268 127.845 110.72 153.04 110.72Z" fill="#8F732A"/>
<path d="M167.7 97.15C167.55 97.15 167.41 97.13 167.26 97.08C166.5 96.84 166.08 96.02 166.33 95.26L182.16 45.87C182.4 45.11 183.22 44.69 183.98 44.94C184.74 45.18 185.16 46 184.91 46.76L169.08 96.15C168.88 96.76 168.31 97.15 167.7 97.15Z" fill="#8F732A"/>
<path d="M213.94 85C213.36 85 212.82 84.65 212.59 84.08C210.13 77.79 200.44 70.6 191.44 68.38C187.5 67.41 181.98 66.97 178.02 70.4C177.42 70.92 176.51 70.86 175.98 70.26C175.46 69.66 175.52 68.75 176.12 68.22C176.13 68.22 176.13 68.21 176.14 68.2C180.78 64.18 192.68 57.64 200.55 59.89C208.94 62.28 211.35 70.39 213.48 77.55C214.07 79.52 214.62 81.37 215.27 83.04C215.56 83.78 215.19 84.62 214.45 84.91C214.29 84.97 214.11 85 213.94 85ZM187.18 64.82C188.75 64.9 190.4 65.15 192.13 65.58C198.58 67.17 205.21 71.02 209.85 75.48C208.03 69.72 205.66 64.35 199.77 62.67C196.44 61.72 191.64 62.86 187.18 64.82Z" fill="#8F732A"/>
<path d="M169.06 7.55002C168.61 6.15002 168.23 4.46003 169.18 3.34003C169.89 2.51003 171.16 2.31004 172.2 2.66004C173.24 3.01004 174.07 3.80005 174.73 4.67005C175.98 6.30005 176.75 8.23003 177.45 10.15C181.21 20.55 183.23 31.57 183.41 42.62C183.42 43.45 183.52 48.44 182.71 48.7C182.71 48.7 180.79 42.03 180.55 41.09C179.21 35.67 177.37 30.4 175.44 25.17C173.28 19.32 170.98 13.51 169.06 7.55002Z" fill="white"/>
<path d="M182.71 50.15C182.47 50.15 182.24 50.09 182.03 49.98C181.69 49.8 181.43 49.48 181.32 49.11C181.24 48.84 179.39 42.4 179.15 41.45C177.8 35.97 175.92 30.64 174.09 25.68C173.52 24.14 172.94 22.6 172.36 21.06C170.76 16.81 169.1 12.41 167.68 7.98999C167.32 6.87999 166.48 4.27999 168.08 2.39999C169.13 1.16999 170.96 0.720005 172.66 1.29001C173.84 1.69001 174.9 2.50001 175.88 3.79001C177.28 5.62001 178.13 7.78 178.81 9.66C182.64 20.23 184.67 31.31 184.86 42.6C184.96 48.48 184.39 49.69 183.15 50.08C183.01 50.13 182.86 50.15 182.71 50.15ZM171.18 3.95001C170.81 3.95001 170.46 4.07 170.28 4.28C169.79 4.86 170.13 6.17998 170.43 7.10998C171.83 11.46 173.48 15.82 175.06 20.04C175.64 21.59 176.22 23.13 176.8 24.68C178.64 29.65 180.52 35.01 181.91 40.55C181.52 30.28 179.57 20.25 176.09 10.64C175.45 8.88001 174.74 7.04001 173.59 5.54001C172.97 4.74001 172.35 4.22999 171.74 4.01999C171.56 3.97999 171.37 3.95001 171.18 3.95001Z" fill="#8F732A"/>
<path d="M205.71 18.96C202.51 21.41 199.95 24.57 197.48 27.75C195.37 30.47 193.3 33.22 191.25 35.99C188.21 40.09 184.03 44.25 182.6 49.15C183.39 46.44 189.67 43.06 191.75 41.28C194.79 38.67 197.96 36.24 201.07 33.72C204.09 31.28 207.08 28.77 209.8 25.98C211.32 24.42 216.86 19.39 216.36 17C215.44 12.61 207.25 17.78 205.71 18.96Z" fill="white"/>
<path d="M182.6 50.59C182.47 50.59 182.33 50.57 182.2 50.53C181.43 50.31 180.99 49.51 181.22 48.74C182.37 44.77 185.1 41.39 187.74 38.12C188.58 37.08 189.37 36.11 190.1 35.12C192.51 31.87 194.49 29.25 196.35 26.86C198.93 23.54 201.52 20.36 204.84 17.81C204.91 17.76 211.82 12.66 215.62 14.06C216.75 14.48 217.52 15.41 217.79 16.68C218.35 19.32 215.04 22.85 211.59 26.24C211.29 26.53 211.04 26.78 210.85 26.97C208.04 29.86 204.93 32.45 201.99 34.82C201.01 35.61 200.03 36.39 199.04 37.18C196.94 38.85 194.76 40.58 192.7 42.35C192.03 42.93 191.05 43.59 189.91 44.37C187.85 45.77 184.41 48.12 183.99 49.53C183.81 50.18 183.23 50.59 182.6 50.59ZM206.59 20.1C203.54 22.44 201.08 25.47 198.62 28.63C196.77 31.01 194.8 33.61 192.41 36.84C191.64 37.87 190.8 38.92 189.98 39.93C189.45 40.58 188.92 41.24 188.41 41.9C189.38 41.24 190.29 40.62 190.81 40.17C192.91 38.36 195.11 36.62 197.23 34.93C198.21 34.15 199.19 33.37 200.16 32.59C203.03 30.27 206.06 27.74 208.77 24.97C208.97 24.77 209.24 24.5 209.55 24.19C214.45 19.37 215.03 17.8 214.95 17.29C214.86 16.87 214.72 16.82 214.61 16.78C213.07 16.21 208.54 18.61 206.59 20.1Z" fill="#8F732A"/>
<path d="M182.6 47.66C188.06 35.77 189.24 21.67 186.77 8.82002C186.39 6.82002 184.49 -0.179985 181.06 3.00002C178.71 5.18002 180.87 13.37 181.08 16.27C181.83 26.55 182.66 37.35 182.6 47.66Z" fill="white"/>
<path d="M182.6 49.1C182.5 49.1 182.39 49.09 182.29 49.07C181.63 48.92 181.15 48.33 181.16 47.65C181.21 37.87 180.47 27.67 179.75 17.79L179.65 16.37C179.6 15.75 179.45 14.8 179.27 13.7C178.42 8.46001 177.9 3.95999 180.08 1.92999C181.56 0.559993 182.89 0.610015 183.74 0.890015C186.69 1.86001 187.89 6.99001 188.18 8.54001C190.8 22.18 189.24 36.65 183.9 48.26C183.68 48.78 183.16 49.1 182.6 49.1ZM182.78 3.63C182.53 3.63 182.17 3.95 182.05 4.06C180.82 5.2 181.7 10.64 182.12 13.25C182.31 14.41 182.47 15.42 182.52 16.17L182.62 17.59C183.16 24.97 183.71 32.53 183.93 39.99C186.8 30.39 187.34 19.49 185.34 9.09C184.84 6.46 183.66 3.91001 182.83 3.64001C182.83 3.63001 182.8 3.63 182.78 3.63Z" fill="#8F732A"/>
<path d="M182.6 49.14C183.1 46.6 186.61 43.08 188.03 40.86C189.81 38.08 191.55 35.26 193.19 32.4C196.53 26.58 199.51 20.52 201.65 14.14C202.23 12.39 204.46 8.15002 202.1 6.91002C199.64 5.62002 196.88 10.36 195.71 11.97C192.1 16.95 189.56 22.61 187.64 28.43C185.4 35.18 183.98 42.17 182.6 49.14Z" fill="white"/>
<path d="M182.6 50.59C182.51 50.59 182.41 50.58 182.32 50.56C181.54 50.41 181.03 49.6399 181.18 48.8599C182.73 41.0399 184.09 34.53 186.26 27.97C188.48 21.25 191.19 15.74 194.54 11.12C194.68 10.93 194.84 10.69 195.02 10.42C196.58 8.13997 199.47 3.89995 202.76 5.61995C205.89 7.25995 204.25 11.41 203.37 13.64C203.23 14 203.1 14.32 203.01 14.59C201.08 20.36 198.28 26.4199 194.44 33.1099C192.95 35.7099 191.3 38.42 189.24 41.63C188.74 42.41 188.05 43.29 187.31 44.22C185.96 45.92 184.29 48.03 184.01 49.42C183.88 50.11 183.28 50.59 182.6 50.59ZM201.19 8.12996C200.46 8.12996 199.19 9.44995 197.41 12.0499C197.21 12.3399 197.03 12.61 196.88 12.82C193.71 17.2 191.13 22.45 189.01 28.88C187.63 33.04 186.58 37.2099 185.6 41.7399C186.08 41.1299 186.51 40.5599 186.82 40.0799C188.85 36.8999 190.48 34.23 191.95 31.68C195.69 25.16 198.42 19.27 200.29 13.68C200.39 13.38 200.54 13.01 200.7 12.59C201.13 11.51 202.27 8.61996 201.43 8.18996C201.36 8.14996 201.28 8.12996 201.19 8.12996Z" fill="#8F732A"/>
<path d="M166.329 95.3065L161.253 111.132L164.005 112.015L169.081 96.1891L166.329 95.3065Z" fill="white"/>
<path d="M152.95 111.31C131.16 111.31 112.76 108.64 108.23 104.82C107.86 104.5 107.55 104.17 107.33 103.83C106.89 103.16 107.08 102.27 107.75 101.83C108.42 101.39 109.31 101.58 109.75 102.25C109.8 102.33 109.9 102.45 110.1 102.62C113.44 105.44 129.6 108.43 152.96 108.43C178.78 108.43 194.65 104.83 196.19 102.22C196.59 101.53 197.48 101.3 198.17 101.71C198.86 102.11 199.09 103 198.68 103.69C195.58 108.92 172.8 111.31 152.95 111.31Z" fill="white"/>
</svg>
