<svg width="105" height="23" viewBox="0 0 105 23" fill="none" xmlns="http://www.w3.org/2000/svg">
<path d="M0.328 3.448H7.84V1.816H0.328V3.448ZM19.9561 20.656L12.9241 0.735999H10.7881L17.7961 20.656H19.9561ZM20.5703 22.12H32.9543V20.176H20.5703V22.12ZM37.5293 22.216H39.8093C37.7933 19.576 36.1373 15.544 36.1373 11.128C36.1373 6.688 37.8173 2.68 39.7853 0.0159998H37.5293C35.4173 3.064 34.1213 6.88 34.1213 11.128C34.1213 15.352 35.4173 19.192 37.5293 22.216ZM51.1081 0.951999L49.2601 1.576C49.8601 2.824 51.2281 6.544 51.6121 7.912L53.4841 7.264C53.0761 5.92 51.6361 2.104 51.1081 0.951999ZM61.7641 2.488L59.5561 1.864C59.0761 5.464 57.6121 9.304 55.7161 11.728C53.2921 14.8 49.7161 17.104 46.2841 18.112L47.9401 19.792C51.3241 18.592 54.8761 16.12 57.3481 12.856C59.3161 10.264 60.6121 6.832 61.3321 3.856C61.4281 3.472 61.5961 2.896 61.7641 2.488ZM44.4121 2.392L42.5161 3.088C43.0921 4.12 44.7481 8.176 45.2041 9.664L47.1001 8.968C46.5481 7.408 45.0361 3.736 44.4121 2.392ZM66.7801 22.216C68.8921 19.192 70.1881 15.352 70.1881 11.128C70.1881 6.88 68.8921 3.064 66.7801 0.0159998H64.5241C66.4921 2.68 68.1721 6.688 68.1721 11.128C68.1721 15.544 66.5401 19.576 64.5241 22.216H66.7801ZM71.3828 22.12H83.7668V20.176H71.3828V22.12ZM84.3578 20.656H86.5178L93.5018 0.735999H91.3898L84.3578 20.656ZM96.4921 3.448H104.004V1.816H96.4921V3.448Z" fill="#575563"/>
</svg>
