<svg width="28" height="28" viewBox="0 0 28 28" fill="none" xmlns="http://www.w3.org/2000/svg">
<path fill-rule="evenodd" clip-rule="evenodd" d="M14 0C21.7265 0 28 6.26515 28 14C28 21.7265 21.7349 28 14 28C6.27355 28 0 21.7349 0 14C0 6.27355 6.26515 0 14 0ZM12.1944 11.2202H15.0666V12.6899H15.1086C15.5117 11.9676 16.4859 11.2202 17.9472 11.2202C20.979 11.2202 21.5417 13.1098 21.5417 15.5621V20.5675H18.5435V16.1332C18.5435 15.075 18.5183 13.7145 16.9814 13.7145C15.4193 13.7145 15.1842 14.865 15.1842 16.0576V20.5675H12.186V11.2202H12.1944ZM10.12 8.62508C10.12 9.4817 9.42292 10.1872 8.55789 10.1872C7.70126 10.1872 6.9958 9.4901 6.9958 8.62508C6.9958 7.76845 7.69286 7.06299 8.55789 7.06299C9.41452 7.06299 10.12 7.76005 10.12 8.62508ZM7.0042 11.2202H10.12V20.5675H7.0042V11.2202Z" fill="#878789"/>
</svg>
