<svg width="78" height="32" viewbox="0 0 78 32" fill="none" xmlns="http://www.w3.org/2000/svg">
<path fill-rule="evenodd" clip-rule="evenodd" d="M26.0674 8.80364L46.1443 23.3045L26.0674 30.7321V8.80364ZM1.05056 31.0002H25.0163V8.47706H1.05056V31.0002ZM46.9766 22.643L26.8533 8.05432L46.9766 1.22362V22.643ZM48.0272 22.8882H76.9499V1.00017H48.0272V22.8882ZM78 23.888V0H47.4921L25.5558 7.47689H0V31.9999H25.5689L47.4921 23.888H78Z" fill="#C39553"/>
<path fill-rule="evenodd" clip-rule="evenodd" d="M4.36719 31.9998H5.41385V7.47681H4.36719V31.9998Z" fill="#C39553"/>
<path fill-rule="evenodd" clip-rule="evenodd" d="M8.43945 31.9998H9.48758V7.47681H8.43945V31.9998Z" fill="#C39553"/>
<path fill-rule="evenodd" clip-rule="evenodd" d="M12.5078 31.9998H13.5564V7.47681H12.5078V31.9998Z" fill="#C39553"/>
<path fill-rule="evenodd" clip-rule="evenodd" d="M16.5801 31.9998H17.6282V7.47681H16.5801V31.9998Z" fill="#C39553"/>
<path fill-rule="evenodd" clip-rule="evenodd" d="M20.6504 31.9998H21.697V7.47681H20.6504V31.9998Z" fill="#C39553"/>
<path fill-rule="evenodd" clip-rule="evenodd" d="M47.7266 4.60161H77.5725V3.60376H47.7266V4.60161Z" fill="#C39553"/>
<path fill-rule="evenodd" clip-rule="evenodd" d="M47.7266 8.47519H77.5725V7.47827H47.7266V8.47519Z" fill="#C39553"/>
<path fill-rule="evenodd" clip-rule="evenodd" d="M47.7266 12.348H77.5725V11.3511H47.7266V12.348Z" fill="#C39553"/>
<path fill-rule="evenodd" clip-rule="evenodd" d="M47.7266 16.222H77.5725V15.2251H47.7266V16.222Z" fill="#C39553"/>
<path fill-rule="evenodd" clip-rule="evenodd" d="M47.7266 20.0969H77.5725V19.0986H47.7266V20.0969Z" fill="#C39553"/>
<path fill-rule="evenodd" clip-rule="evenodd" d="M9.69307 19.366H8.45847V16.6674H9.73652C10.5684 16.6674 11.0019 17.2105 11.0019 18.0035C11.0019 18.795 10.5684 19.366 9.69307 19.366ZM10.2086 14.5802H5.94531V24.5266H8.45847V21.4532H10.2086C12.2062 21.4532 13.556 20.0061 13.556 18.0035C13.556 15.9994 12.2062 14.5802 10.2086 14.5802Z" fill="white"/>
<path fill-rule="evenodd" clip-rule="evenodd" d="M17.5234 19.0184H17.4932C17.4932 19.0184 17.5234 18.8094 17.5234 18.5729V17.3633H15.1406V24.5266H17.623V21.7439C17.623 20.439 18.286 19.5894 19.6636 19.5894C19.835 19.5894 20.0795 19.6019 20.1664 19.6307V17.2662C20.0795 17.2518 19.98 17.2388 19.8804 17.2388C18.7712 17.2388 17.8398 18.0443 17.5234 19.0184Z" fill="white"/>
<path fill-rule="evenodd" clip-rule="evenodd" d="M33.437 11.0779L30.9863 12.1045V13.9822L33.437 12.956V11.0779Z" fill="white"/>
<path fill-rule="evenodd" clip-rule="evenodd" d="M30.9586 22.0018C30.987 23.0856 29.4077 23.5683 29.293 23.6031V25.6048C30.987 25.1226 33.463 23.591 33.463 21.187V13.8467L30.9586 14.897V22.0018Z" fill="white"/>
<path fill-rule="evenodd" clip-rule="evenodd" d="M37.3496 14.665C37.4819 14.0402 37.828 13.3931 38.5544 13.0898C39.191 12.8231 39.7846 12.9889 39.581 13.729L37.3496 14.665ZM42.059 13.3178C42.059 11.3296 40.8156 10.5761 38.6105 11.3017C36.1281 12.1193 34.7285 13.7438 34.7285 16.6677C34.7285 18.5723 36.1389 19.6222 38.8317 18.701C40.159 18.2458 41.2032 17.3315 42.0156 16.323L41.089 15.0306C40.4803 15.674 39.7626 16.2886 39.0308 16.6152C37.5273 17.2879 37.248 16.8122 37.2934 16.0656L42.0004 14.0918C42.0307 13.8298 42.059 13.5673 42.059 13.3178Z" fill="white"/>
<path fill-rule="evenodd" clip-rule="evenodd" d="M54.6331 12.4786V10.2813H56.184V8.40314H54.6331V6.34473H52.2195V8.40314H51.1992V10.2813H52.1478V12.7982C52.1478 15.205 54.4315 15.5102 55.6075 15.5102C55.896 15.5102 56.0971 15.4833 56.2836 15.4698V13.3826C56.1254 13.397 56.0386 13.397 55.9521 13.397C55.4796 13.397 54.6331 13.2846 54.6331 12.4786Z" fill="white"/>
<path fill-rule="evenodd" clip-rule="evenodd" d="M61.6256 13.606C60.722 13.606 59.9467 12.9514 59.9467 11.8807C59.9467 10.7955 60.722 10.114 61.6256 10.114C62.5307 10.114 63.3059 10.7955 63.3059 11.8807C63.3059 12.9514 62.5307 13.606 61.6256 13.606ZM61.6124 8.11133C59.3009 8.11133 57.4336 9.62668 57.4336 11.8807C57.4336 14.1202 59.3009 15.6091 61.6256 15.6091C63.9542 15.6091 65.8196 14.1202 65.8196 11.8807C65.8196 9.62668 63.9542 8.11133 61.6124 8.11133Z" fill="white"/>
<path fill-rule="evenodd" clip-rule="evenodd" d="M72.0977 8.15405C70.9905 8.15405 70.0566 8.95911 69.7427 9.9342H69.7124C69.7124 9.9342 69.7427 9.72469 69.7427 9.48777V8.27762H67.3574V15.4423H69.8423V12.6592C69.8423 11.3525 70.5033 10.5042 71.8809 10.5042C72.0542 10.5042 72.2993 10.5172 72.3837 10.5451V8.181C72.2993 8.16752 72.1972 8.15405 72.0977 8.15405Z" fill="white"/>
<path fill-rule="evenodd" clip-rule="evenodd" d="M25.5685 24.6405C23.2208 24.6405 21.3359 23.1479 21.3359 20.9027C21.3359 18.645 23.2335 17.1255 25.5685 17.1255V19.1337C24.6541 19.1337 23.8725 19.8166 23.8725 20.9027C23.8725 21.9772 24.6541 22.6327 25.5685 22.6327V24.6405Z" fill="white"/>
<path fill-rule="evenodd" clip-rule="evenodd" d="M29.4333 19.7381C29.2405 17.6629 27.5528 16.5178 25.5684 17.1254V19.1332C25.5684 19.1332 26.864 18.8907 26.9963 20.2681C27.1027 21.3603 26.5867 22.3414 25.5684 22.6322V24.6404C27.5138 24.6404 29.6652 22.228 29.4333 19.7381Z" fill="white"/>
<path fill-rule="evenodd" clip-rule="evenodd" d="M49.6412 12.6848C49.0998 13.1312 48.4066 13.5312 47.5723 13.6074V15.5557C48.9524 15.2245 49.6758 14.9546 50.5057 14.399L49.6412 12.6848Z" fill="white"/>
<path fill-rule="evenodd" clip-rule="evenodd" d="M49.2599 10.7433L50.332 9.12292C49.6412 8.41495 48.7683 8.04053 47.5723 8.04053V10.0492C48.2049 10.0743 48.8401 10.3563 49.2599 10.7433Z" fill="white"/>
<path fill-rule="evenodd" clip-rule="evenodd" d="M47.5728 13.6074C45.7666 14.0311 45.5435 13.0518 45.6084 12.2812C45.706 11.1649 46.6477 10.042 47.5728 10.0495V8.04077C46.7175 8.04077 43.1992 8.80356 43.1992 13.0439C43.1992 15.0266 44.7116 16.3826 47.4108 15.6092C47.4645 15.5938 47.5191 15.5762 47.5728 15.5585V13.6074Z" fill="white"/>
</svg>
