<svg width="66" height="40" viewbox="0 0 66 40" fill="none" xmlns="http://www.w3.org/2000/svg">
<path d="M0 8.91675L66 0V31.0833L0 40V8.91675Z" fill="#C39553"/>
<path d="M14.9658 18.4243V21.697H11.8342V18.4243H10.043V26.9091H11.8342V23.4061H14.9658V26.9091H16.757V18.4243H14.9658Z" fill="white"/>
<path d="M24.0641 25.7697C26.5908 25.7697 28.4769 23.8667 28.4769 21.3334C28.4769 18.8122 26.5908 16.9091 24.0641 16.9091C21.5256 16.9091 19.6277 18.8243 19.6277 21.3334C19.6277 23.8546 21.5256 25.7697 24.0641 25.7697ZM24.0641 24.0364C22.5813 24.0364 21.4544 22.8606 21.4544 21.3334C21.4544 19.8061 22.5813 18.6425 24.0641 18.6425C25.5469 18.6425 26.6501 19.794 26.6501 21.3334C26.6501 22.8728 25.5469 24.0364 24.0641 24.0364Z" fill="white"/>
<path d="M36.389 19.7697C36.9702 19.3576 37.3261 18.6788 37.3261 17.9515C37.3261 16.7031 36.2585 15.7697 34.8232 15.7697H31.395V24.2546H34.9181C36.3653 24.2546 37.5396 23.1637 37.5396 21.8061C37.5396 20.897 37.1126 20.1697 36.389 19.7697ZM35.5824 18.2303C35.5824 18.7637 35.2146 19.1394 34.6571 19.1394H33.1506V17.3334H34.6571C35.2146 17.3334 35.5824 17.697 35.5824 18.2303ZM34.752 22.5697H33.1506V20.6667H34.752C35.3451 20.6667 35.7366 21.0667 35.7366 21.6122C35.7366 22.1697 35.3451 22.5697 34.752 22.5697Z" fill="white"/>
<path d="M44.2299 23.1031C46.7566 23.1031 48.6427 21.2 48.6427 18.6667C48.6427 16.1455 46.7566 14.2425 44.2299 14.2425C41.6914 14.2425 39.7934 16.1576 39.7934 18.6667C39.7934 21.1879 41.6914 23.1031 44.2299 23.1031ZM44.2299 21.3697C42.7471 21.3697 41.6202 20.194 41.6202 18.6667C41.6202 17.1394 42.7471 15.9758 44.2299 15.9758C45.7127 15.9758 46.8159 17.1273 46.8159 18.6667C46.8159 20.2061 45.7127 21.3697 44.2299 21.3697Z" fill="white"/>
<path d="M53.352 19.8788V18.1334H56.2345V16.4728H53.352V14.7879H56.5429V13.0909H51.5608V21.5758H56.6734V19.8788H53.352Z" fill="white"/>
</svg>
