<?xml version="1.0" encoding="UTF-8"?><!DOCTYPE svg PUBLIC "-//W3C//DTD SVG 1.1//EN" "http://www.w3.org/Graphics/SVG/1.1/DTD/svg11.dtd"><svg xmlns="http://www.w3.org/2000/svg" xmlns:xlink="http://www.w3.org/1999/xlink"><symbol id="icon-arrow-down" viewBox="0 0 8 4">
    <path d="M4 4l4-4H0l4 4z"/>
</symbol><symbol id="icon-arrow-left-white-custom" viewBox="0 0 9 14">
    <path d="M8 1L2 7l6 6"/>
</symbol><symbol id="icon-arrow-open" viewBox="0 0 10 10">
    <path d="M2.622 1.5H8.5m0 0v5.878m0-5.878l-7 7"/>
</symbol><symbol id="icon-arrow-right" viewBox="0 0 8 10">
    <path d="M8 5L.5 9.33V.67L8 5z"/>
</symbol><symbol id="icon-behance" viewBox="0 0 349 349">
    <path d="M227.995 160.585c-5.794 0-10.27 1.667-13.446 4.944-3.199 3.268-5.191 7.717-6.008 13.346h38.839c-.422-5.993-2.422-10.526-6.023-13.625-3.575-3.106-8.039-4.665-13.362-4.665z"/>
    <path d="M143.312 158.368c3.258-1.984 4.882-5.512 4.882-10.58 0-5.597-2.15-9.315-6.464-11.102-3.706-1.242-8.452-1.884-14.204-1.884h-22.398v26.549h25.465c5.23 0 9.462-.994 12.719-2.983z"/>
    <path d="M142.991 183.316c-2.851-1.32-6.874-1.993-12.034-2.039h-25.833v32.073h25.43c5.227 0 9.269-.685 12.19-2.112 5.265-2.623 7.903-7.617 7.903-15.029 0-6.251-2.557-10.572-7.656-12.893z"/>
    <path d="M174.078 0C77.937 0 0 77.937 0 174.078s77.937 174.078 174.078 174.078 174.078-77.937 174.078-174.078S270.219 0 174.078 0zm29.496 118.895h48.467v12.039h-48.467v-12.039zm-32.92 98.234c-2.278 3.745-5.11 6.905-8.514 9.455-3.83 2.943-8.367 4.963-13.582 6.042-5.23 1.079-10.893 1.625-16.994 1.625H77.368V113.905h58.123c14.649.24 25.036 4.483 31.171 12.82 3.679 5.114 5.505 11.245 5.505 18.379 0 7.357-1.845 13.245-5.563 17.717-2.066 2.506-5.122 4.789-9.164 6.847 6.123 2.24 10.769 5.771 13.876 10.63 3.125 4.843 4.688 10.723 4.688 17.628-.004 7.142-1.764 13.548-5.35 19.203zm100.11-23.384H208c.344 8.665 3.338 14.723 9.009 18.189 3.42 2.174 7.567 3.238 12.426 3.238 5.121 0 9.295-1.296 12.506-3.958 1.752-1.412 3.296-3.4 4.631-5.914h23.005c-.604 5.117-3.373 10.305-8.352 15.582-7.714 8.382-18.53 12.583-32.421 12.583-11.478 0-21.59-3.543-30.367-10.607-8.75-7.087-13.145-18.584-13.145-34.533 0-14.955 3.946-26.402 11.861-34.371 7.945-7.984 18.201-11.957 30.839-11.957 7.493 0 14.247 1.339 20.27 4.031 6.008 2.696 10.971 6.936 14.882 12.766 3.539 5.133 5.814 11.071 6.874 17.829.588 3.942.855 9.656.746 17.122z"/>
</symbol><symbol id="icon-bell" viewBox="0 0 20 20">
    <path d="M14.49 6.003a5 5 0 0 0-9.902 1.392c.811 5.777-1.432 7.775-1.432 7.775l14.854-2.088s-2.708-1.302-3.52-7.079z"/>
    <path fill-rule="evenodd" clip-rule="evenodd" d="M4.88 3.188a5.833 5.833 0 0 1 10.435 2.7c.39 2.766 1.222 4.4 1.908 5.324.345.463.658.755.87.925a2.526 2.526 0 0 0 .286.198l.002.001a.833.833 0 0 1-.255 1.572L3.272 15.995a.833.833 0 0 1-.68-1.44l.003-.002.038-.04c.039-.043.103-.118.182-.229.157-.222.378-.588.581-1.129.405-1.076.755-2.877.366-5.644A5.833 5.833 0 0 1 4.88 3.188zm11.24 9.318a7.87 7.87 0 0 1-.235-.3c-.87-1.172-1.797-3.077-2.22-6.087a4.167 4.167 0 1 0-8.252 1.16c.423 3.01.057 5.096-.457 6.463a7.866 7.866 0 0 1-.143.353l11.307-1.589z"/>
    <path fill-rule="evenodd" clip-rule="evenodd" d="M9.104 16.972a.833.833 0 0 1 1.17.141.834.834 0 0 0 1.428-.2.833.833 0 0 1 1.543.627 2.5 2.5 0 0 1-4.282.602.833.833 0 0 1 .14-1.17z"/>
</symbol><symbol id="icon-burger" viewBox="0 0 30 10">
    <path d="M0 0h30v2H0z"/>
    <path d="M0 8h30v2H0z"/>
</symbol><symbol id="icon-clock" viewBox="0 0 14 14">
    <path fill-rule="evenodd" clip-rule="evenodd" d="M14 7A7 7 0 1 1 0 7a7 7 0 0 1 14 0zM7.75 2.8a.75.75 0 1 0-1.5 0V7c0 .284.16.544.415.67l2.8 1.4a.75.75 0 0 0 .67-1.34L7.75 6.535V2.8z"/>
</symbol><symbol id="icon-close-menu" viewBox="0 0 22 22">
    <path d="M0 20.625L20.625 0 22 1.375 1.375 22z"/>
    <path d="M22 20.625L1.375 0 0 1.375 20.625 22z"/>
</symbol><symbol id="icon-close-popup" viewBox="0 0 12 12">
    <path d="M1 1l5 5m5 5L6 6m0 0l5-5L1 11"/>
</symbol><symbol id="icon-close-search" viewBox="0 0 8 8">
    <path d="M.143 1.507L1.507.143l6.364 6.364L6.507 7.87z"/>
    <path d="M7.871 1.507L6.507.143.143 6.507 1.507 7.87z"/>
</symbol><symbol id="icon-copy-link" viewBox="0 0 20 20">
    <path fill-rule="evenodd" clip-rule="evenodd" d="M10.316 2.697a4.94 4.94 0 1 1 6.987 6.987l-.423.423a.75.75 0 0 1-1.061-1.06l.423-.424a3.44 3.44 0 1 0-4.865-4.865L8.198 6.936c-.99.991-.99 2.597 0 3.588l1.062 1.062a.75.75 0 1 1-1.06 1.06l-1.062-1.062a4.037 4.037 0 0 1 0-5.708l3.178-3.179zm.423 4.656a.75.75 0 0 1 1.061 0l1.063 1.063a4.037 4.037 0 0 1 0 5.708l-3.18 3.179a4.94 4.94 0 0 1-6.986-6.987l.423-.423a.75.75 0 1 1 1.061 1.06l-.423.424a3.44 3.44 0 1 0 4.865 4.865l3.179-3.178c.99-.991.99-2.597 0-3.588l-1.063-1.062a.75.75 0 0 1 0-1.06z"/>
</symbol><symbol id="icon-facebook-circle" viewBox="0 0 20 20">
    <path d="M19.998 10c0-5.523-4.476-10-9.999-10C4.477 0 0 4.477 0 10c0 4.99 3.657 9.127 8.437 9.877V12.89H5.898V10h2.539V7.795c0-2.506 1.493-3.89 3.777-3.89 1.094 0 2.238.195 2.238.195v2.461h-1.26c-1.243 0-1.63.77-1.63 1.562v1.875h2.773l-.444 2.89h-2.33v6.988c4.78-.75 8.437-4.887 8.437-9.878z"/>
</symbol><symbol id="icon-facebook" viewBox="0 0 9 16">
    <path fill-rule="evenodd" clip-rule="evenodd" d="M7.943 8.932l.44-2.874H5.628V4.193c0-.786.385-1.553 1.62-1.553H8.5V.194S7.362 0 6.276 0c-2.27 0-3.753 1.375-3.753 3.867v2.19H0v2.875h2.523v6.947c1.029.161 2.076.161 3.105 0V8.933h2.315"/>
</symbol><symbol id="icon-file" viewBox="0 0 88 88">
    <path d="M44 88c24.3 0 44-19.7 44-44S68.3 0 44 0 0 19.7 0 44s19.7 44 44 44z" fill-opacity=".74"/>
    <path d="M60.909 29.99l-.046-.045v-.046l-8.671-8.67-.046-.046s-.045 0-.045-.046c0 0-.046 0-.046-.046-.137-.091-.274-.091-.456-.091H30.103c-.821 0-1.597.32-2.145.867l-.045.046a3.187 3.187 0 0 0-.913 2.19v38.838c0 .867.365 1.643.913 2.19.547.548 1.369.913 2.19.913h27.794c.867 0 1.643-.365 2.19-.912.548-.548.913-1.37.913-2.191V30.447c0-.183-.046-.32-.091-.456zm-8.443-5.704l5.157 5.157h-3.788c-.365 0-.73-.137-.959-.41a1.423 1.423 0 0 1-.41-.96v-3.787zm6.572 38.655c0 .32-.137.593-.365.821-.229.229-.503.365-.822.365H30.103c-.32 0-.593-.136-.821-.319-.228-.228-.32-.502-.32-.821v-38.93c0-.319.137-.593.366-.82l.045-.046c.228-.183.502-.32.776-.32h20.446v5.157c0 .913.365 1.734 1.004 2.373.593.594 1.46.959 2.373.959h5.066v31.58z"/>
</symbol><symbol id="icon-fire" viewBox="0 0 13 15">
    <path d="M3.25 4.24A5.362 5.362 0 0 0 5.838 0c2.127 1.052 3.587 3.22 3.587 5.725 0 .737-.127 1.445-.36 2.104a3.228 3.228 0 0 0 2.225-2.334A5.7 5.7 0 0 1 13 9.565c0 2.51-1.628 4.644-3.9 5.435-2.272-.791-3.9-2.925-3.9-5.434 0-.064.001-.127.003-.19a5.059 5.059 0 0 0-.985 5.159C1.798 13.955 0 11.807 0 9.244c0-2.04 1.14-3.819 2.828-4.75l.422-.256z"/>
</symbol><symbol id="icon-gallery" viewBox="0 0 88 88">
    <path d="M44 88c24.3 0 44-19.7 44-44S68.3 0 44 0 0 19.7 0 44s19.7 44 44 44z" fill-opacity=".74"/>
    <path d="M67.535 38.913h-5.491V33.42c0-.81-.656-1.465-1.465-1.465h-5.492v-5.491c0-.81-.655-1.465-1.464-1.465H20.465c-.81 0-1.465.656-1.465 1.465v23.187c0 .81.656 1.465 1.465 1.465h5.491v5.491c0 .81.656 1.465 1.465 1.465h5.492v5.492c0 .808.655 1.465 1.464 1.465h33.158c.81 0 1.465-.657 1.465-1.465V40.377c0-.809-.656-1.464-1.465-1.464zM21.93 27.93h30.228v20.257H21.93V27.93zm6.956 23.187h24.737c.809 0 1.464-.656 1.464-1.465V34.886h4.027v20.258H28.886v-4.027zM66.07 62.1H35.842v-4.027H60.58c.81 0 1.465-.656 1.465-1.464V41.842h4.026V62.1z"/>
</symbol><symbol id="icon-google" viewBox="0 0 16 16">
    <path fill-rule="evenodd" clip-rule="evenodd" d="M8 3.093c1.502 0 2.515.65 3.093 1.191l2.258-2.204C11.964.791 10.16 0 8 0A7.994 7.994 0 0 0 .853 4.409L3.44 6.418C4.089 4.488 5.884 3.093 8 3.093z"/>
    <path fill-rule="evenodd" clip-rule="evenodd" d="M15.68 8.178c0-.658-.053-1.138-.169-1.636H8v2.97h4.409c-.089.737-.569 1.848-1.636 2.595l2.525 1.955c1.51-1.395 2.382-3.448 2.382-5.884z"/>
    <path fill-rule="evenodd" clip-rule="evenodd" d="M3.449 9.582A4.925 4.925 0 0 1 3.182 8c0-.551.098-1.085.258-1.582L.853 4.408A8.007 8.007 0 0 0 0 8c0 1.289.311 2.507.853 3.591L3.45 9.582z"/>
    <path fill-rule="evenodd" clip-rule="evenodd" d="M8 16c2.16 0 3.973-.711 5.298-1.938l-2.525-1.955c-.675.47-1.582.8-2.773.8-2.116 0-3.911-1.396-4.551-3.325l-2.587 2.01C2.178 14.203 4.871 16 8 16z"/>
</symbol><symbol id="icon-heart-outline" viewBox="0 0 20 20">
    <path fill-rule="evenodd" clip-rule="evenodd" d="M.75 7.568c0-3.3 2.471-5.68 5.628-5.68 1.47 0 2.711.571 3.624 1.486.913-.916 2.145-1.485 3.62-1.485 3.157 0 5.628 2.38 5.628 5.679 0 1.961-.882 3.818-2.303 5.503-1.422 1.686-3.432 3.261-5.828 4.69l-.015.009-.015.008a3.345 3.345 0 0 1-.44.204c-.147.054-.385.13-.649.13s-.502-.076-.65-.131a3.072 3.072 0 0 1-.448-.213l-.012-.007c-2.4-1.429-4.413-3.004-5.835-4.69C1.632 11.387.75 9.53.75 7.569zm5.628-3.68c-2.061 0-3.628 1.494-3.628 3.68 0 1.338.6 2.754 1.833 4.214 1.23 1.458 3.042 2.898 5.324 4.257a1.199 1.199 0 0 0 .094.048c.035-.015.072-.034.11-.054 2.273-1.357 4.079-2.795 5.307-4.251 1.231-1.46 1.832-2.876 1.832-4.214 0-2.186-1.567-3.68-3.628-3.68-1.186 0-2.097.574-2.695 1.517A1.098 1.098 0 0 1 9.07 5.4c-.582-.93-1.505-1.511-2.693-1.511z"/>
</symbol><symbol id="icon-heart" viewBox="0 0 20 18">
    <path d="M10 16.111c.175 0 .424-.108.607-.209 4.677-2.789 7.643-6.034 7.643-9.334 0-2.743-2.019-4.68-4.628-4.68-1.562 0-2.777.78-3.54 1.981a.098.098 0 0 1-.163 0c-.75-1.195-1.98-1.98-3.541-1.98-2.61 0-4.628 1.936-4.628 4.679 0 3.3 2.966 6.545 7.652 9.334.174.1.424.21.598.21z"/>
</symbol><symbol id="icon-instagram" viewBox="0 0 20 20">
    <path d="M10 0C7.283 0 6.944.013 5.878.06 4.812.11 4.088.278 3.45.525a4.897 4.897 0 0 0-1.772 1.153A4.88 4.88 0 0 0 .525 3.45C.278 4.088.109 4.812.06 5.878.01 6.944 0 7.283 0 10c0 2.717.013 3.056.06 4.123.05 1.064.218 1.79.465 2.427a4.905 4.905 0 0 0 1.153 1.772 4.89 4.89 0 0 0 1.772 1.153c.638.247 1.363.416 2.428.465 1.066.05 1.405.06 4.122.06 2.717 0 3.056-.012 4.123-.06 1.064-.05 1.79-.218 2.427-.465a4.915 4.915 0 0 0 1.772-1.153c.555-.556.899-1.113 1.153-1.772.247-.638.416-1.363.465-2.428.05-1.066.06-1.405.06-4.122 0-2.717-.012-3.056-.06-4.122-.05-1.065-.218-1.791-.465-2.428a4.908 4.908 0 0 0-1.153-1.772A4.873 4.873 0 0 0 16.55.525C15.912.278 15.187.109 14.122.06 13.056.01 12.718 0 10 0zm0 1.8c2.67 0 2.988.013 4.042.06.975.045 1.504.207 1.856.345.468.18.8.397 1.151.747.35.35.566.682.747 1.15.137.352.3.881.344 1.856.047 1.055.058 1.372.058 4.042s-.012 2.988-.061 4.042c-.051.975-.214 1.504-.351 1.856-.187.468-.4.8-.75 1.151a3.12 3.12 0 0 1-1.15.747c-.35.137-.887.3-1.862.344-1.061.047-1.374.058-4.049.058-2.676 0-2.988-.012-4.05-.061-.975-.051-1.513-.214-1.862-.351-.475-.187-.8-.4-1.15-.75a3.037 3.037 0 0 1-.75-1.15c-.137-.35-.299-.887-.35-1.862-.037-1.05-.05-1.374-.05-4.036 0-2.664.013-2.989.05-4.051.051-.975.213-1.512.35-1.862.175-.475.4-.8.75-1.15.35-.35.675-.575 1.15-.75.35-.137.875-.3 1.85-.35 1.063-.037 1.375-.05 4.05-.05L10 1.8zm0 3.065a5.135 5.135 0 1 0 0 10.27 5.135 5.135 0 0 0 0-10.27zm0 8.468A3.332 3.332 0 1 1 13.333 10 3.332 3.332 0 0 1 10 13.333zm6.538-8.67a1.2 1.2 0 0 1-2.4 0 1.2 1.2 0 0 1 2.4 0z"/>
</symbol><symbol id="icon-linkedin" viewBox="0 0 28 28">
    <path fill-rule="evenodd" clip-rule="evenodd" d="M14 0c7.727 0 14 6.265 14 14 0 7.727-6.265 14-14 14-7.726 0-14-6.265-14-14C0 6.274 6.265 0 14 0zm-1.806 11.22h2.873v1.47h.042c.403-.722 1.377-1.47 2.838-1.47 3.032 0 3.595 1.89 3.595 4.342v5.005h-2.998v-4.434c0-1.058-.026-2.418-1.563-2.418-1.562 0-1.797 1.15-1.797 2.343v4.51h-2.998V11.22h.008zM10.12 8.625c0 .857-.697 1.562-1.562 1.562a1.565 1.565 0 0 1-1.562-1.562c0-.857.697-1.562 1.562-1.562.857 0 1.562.697 1.562 1.562zM7.004 11.22h3.116v9.347H7.004V11.22z"/>
</symbol><symbol id="icon-lock" viewBox="0 0 18 20">
    <path fill-rule="evenodd" clip-rule="evenodd" d="M9.5 4.167a4.167 4.167 0 1 1 8.334 0v2.727a.833.833 0 1 1-1.667 0V4.167a2.5 2.5 0 0 0-5 0v4.166H12c.92 0 1.667.747 1.667 1.667v6.667A3.333 3.333 0 0 1 10.334 20H3.667a3.333 3.333 0 0 1-3.334-3.333V10c0-.92.747-1.667 1.667-1.667h7.5V4.167zm.354 8.687a.5.5 0 0 0-.707-.708L6.174 15.12 4.86 13.757a.5.5 0 0 0-.72.693l1.667 1.731a.5.5 0 0 0 .713.007l3.334-3.333z"/>
</symbol><symbol id="icon-mark" viewBox="0 0 11 13">
    <path d="M0 2a2 2 0 0 1 2-2h7a2 2 0 0 1 2 2v11l-5.5-2.867L0 13V2z"/>
</symbol><symbol id="icon-play-btn" viewBox="0 0 88 88">
    <path d="M44 88c24.3 0 44-19.7 44-44S68.3 0 44 0 0 19.7 0 44s19.7 44 44 44z" fill-opacity=".74"/>
    <path d="M65 44L29 21v46l36-23z"/>
</symbol><symbol id="icon-search" viewBox="0 0 18 18">
    <path fill-rule="evenodd" clip-rule="evenodd" d="M8.25 3a5.25 5.25 0 1 0 0 10.5 5.25 5.25 0 0 0 0-10.5zM1.5 8.25a6.75 6.75 0 1 1 13.5 0 6.75 6.75 0 0 1-13.5 0z"/>
    <path fill-rule="evenodd" clip-rule="evenodd" d="M11.957 11.957a.75.75 0 0 1 1.061 0l3.263 3.263a.75.75 0 0 1-1.061 1.06l-3.263-3.262a.75.75 0 0 1 0-1.06z"/>
</symbol><symbol id="icon-share" viewBox="0 0 20 16">
    <path fill-rule="evenodd" clip-rule="evenodd" d="M10.418.688a.833.833 0 0 0-1.34.663v3.575c-4.685.48-7.723 4.272-8.184 9.076-.038.403.473.582.737.276 1.927-2.232 4.305-3.47 7.448-3.153v3.524c0 .69.79 1.081 1.339.663l8.714-6.65a.833.833 0 0 0 0-1.325L10.418.688z"/>
</symbol><symbol id="icon-telegram" viewBox="0 0 20 18">
    <path d="M19.925 2.158l-3.009 14.209c-.208 1.008-.816 1.25-1.666.783l-4.584-3.392L8.45 15.9c-.25.25-.459.467-.917.467-.6 0-.5-.225-.7-.792L5.25 10.417.708 9c-.983-.292-.992-.967.217-1.458L18.64.708c.809-.358 1.584.2 1.275 1.442l.009.008z"/>
</symbol><symbol id="icon-twitter" viewBox="0 0 20 18">
    <path d="M19.962 2.808a8.334 8.334 0 0 1-2.354.645 4.132 4.132 0 0 0 1.802-2.269c-.793.463-1.67.8-2.606.987a4.1 4.1 0 0 0-6.987 3.735 11.612 11.612 0 0 1-8.45-4.272 4.018 4.018 0 0 0-.555 2.063A4.1 4.1 0 0 0 2.635 7.11a4.087 4.087 0 0 1-1.857-.513v.05a4.102 4.102 0 0 0 3.289 4.023 4.163 4.163 0 0 1-1.844.07 4.114 4.114 0 0 0 3.837 2.848 8.224 8.224 0 0 1-5.085 1.755c-.325 0-.65-.02-.975-.056a11.663 11.663 0 0 0 6.298 1.84c7.544 0 11.665-6.246 11.665-11.654 0-.175 0-.35-.012-.525.8-.575 1.5-1.3 2.05-2.124l-.04-.016z"/>
</symbol><symbol id="icon-user" viewBox="0 0 20 20">
    <path fill-rule="evenodd" clip-rule="evenodd" d="M1.334 10a8.667 8.667 0 1 1 14.956 5.963c.272-.509.437-1.052.437-1.533 0-1.21-1.526-1.977-2.686-2.406-.962 1.578-2.354 2.768-4.04 2.768-1.685 0-3.075-1.187-4.037-2.762-1.13.43-2.597 1.194-2.597 2.4 0 .525.181 1.125.48 1.673A8.64 8.64 0 0 1 1.334 10zM10.001.333C4.66.333.334 4.661.334 10a9.667 9.667 0 0 0 9.667 9.667c5.338 0 9.666-4.328 9.666-9.667 0-5.339-4.328-9.667-9.666-9.667zm4.121 6.12c0 1.848-.456 3.679-1.216 5.03-.85 1.344-1.881 2.059-2.905 2.059-1.024 0-2.056-.715-2.905-2.06-.76-1.35-1.216-3.181-1.216-5.028 0-1.7 1.809-3.12 4.12-3.12 2.313 0 4.122 1.42 4.122 3.12z"/>
</symbol></svg>