<svg width="100" height="42" viewBox="0 0 100 42" fill="none" xmlns="http://www.w3.org/2000/svg">
<path d="M41 23.4C41 24.8 39.7 26 38.3 26H37V30H38.3C42 30 45 27 45 23.4V16H52V30H56V12H41V23.4ZM74 22C74 24.8 72 27.4 69.1 27.4H68.9C66.1 27.4 64 25.2 64 22V12H60V22C60 28 64.1 31 68.9 31H69.1C71.2 31 72.9 30.3 74 29V30.2C74 34 71.6 35.5 69.1 35.5H68.9C67.8539 35.4731 66.8373 35.1483 65.9693 34.5637C65.1014 33.9792 64.4182 33.1592 64 32.2L60.7 33.4C61.3668 35.0349 62.4998 36.4375 63.9578 37.4332C65.4159 38.4289 67.1346 38.9738 68.9 39H69.1C74.2 39 78 35.3 78 30.2V12H74V22ZM96 12V19H86V12H82V30H86V23H96V30H100V12H96Z" fill="#FEFEFE"/>
<path d="M0 8H26V34H0V8Z" fill="#FF9501"/>
<path d="M0 8H26V34H0V8Z" fill="url(#paint0_linear)"/>
<path d="M0 8H26V34H0V8Z" fill="url(#paint1_linear)"/>
<path d="M0 8H26V34H0V8Z" fill="url(#paint2_linear)"/>
<path d="M0 8H26V34H0V8Z" fill="url(#paint3_linear)"/>
<defs>
<linearGradient id="paint0_linear" x1="21.58" y1="29.424" x2="19.812" y2="36.392" gradientUnits="userSpaceOnUse">
<stop stop-color="#FFB401" stop-opacity="0"/>
<stop offset="1" stop-color="#FFB401"/>
</linearGradient>
<linearGradient id="paint1_linear" x1="30.16" y1="18.634" x2="11.44" y2="22.404" gradientUnits="userSpaceOnUse">
<stop stop-color="#FF7001"/>
<stop offset="1" stop-color="#FF7001" stop-opacity="0"/>
</linearGradient>
<linearGradient id="paint2_linear" x1="20.722" y1="22.014" x2="14.274" y2="34" gradientUnits="userSpaceOnUse">
<stop stop-color="#FFB301" stop-opacity="0"/>
<stop offset="1" stop-color="#FFB301"/>
</linearGradient>
<linearGradient id="paint3_linear" x1="21.58" y1="1.084" x2="13" y2="17.75" gradientUnits="userSpaceOnUse">
<stop stop-color="#FF7001"/>
<stop offset="1" stop-color="#FF7001" stop-opacity="0"/>
</linearGradient>
</defs>
</svg>
