<svg width="106" height="34" viewBox="0 0 106 34" fill="none" xmlns="http://www.w3.org/2000/svg">
<path fill-rule="evenodd" clip-rule="evenodd" d="M4.694 16.36L5.527 17.096L6.375 16.092L7.451 18.634L8.457 18.188L6.692 14.006L4.694 16.361V16.36ZM9.805 19.06L10.633 19.791L11.486 18.791L12.561 21.329L13.568 20.887L11.798 16.701L9.805 19.06V19.06ZM25.906 23.81L14.381 30.62L2.861 23.81V10.185L14.381 3.375L25.906 10.185V23.81ZM14.386 0L0 8.5V25.5L14.386 34L28.766 25.5V8.5L14.386 0ZM4.694 16.36L5.527 17.096L6.375 16.092L7.451 18.634L8.457 18.188L6.692 14.006L4.694 16.361V16.36ZM11.798 16.7L9.805 19.06L10.633 19.791L11.486 18.791L12.561 21.329L13.568 20.887L11.798 16.701V16.7ZM11.798 16.7L9.805 19.06L10.633 19.791L11.486 18.791L12.561 21.329L13.568 20.887L11.798 16.701V16.7ZM6.692 14.006L4.694 16.36L5.527 17.095L6.375 16.091L7.451 18.633L8.457 18.187L6.692 14.005V14.006ZM41.813 16.158H39.637V11.448H41.833C43.266 11.448 44.083 12.296 44.083 13.772C44.083 15.265 43.236 16.158 41.813 16.158V16.158ZM45.343 10.448C44.53 9.631 43.414 9.195 42.116 9.195H35.939V11.448H37.173V23.47H39.637V18.411H42.116C44.763 18.411 46.612 16.502 46.612 13.772C46.612 12.428 46.171 11.281 45.342 10.449L45.343 10.448ZM51.817 14.879C52.937 14.879 53.696 15.64 53.834 16.873H49.363C49.685 15.635 50.603 14.879 51.817 14.879V14.879ZM54.91 20.4C54.875 20.426 54.835 20.451 54.786 20.487C54.394 20.786 53.472 21.491 52.248 21.491C50.608 21.491 49.458 20.451 49.249 18.817H56.174L56.209 18.563C56.229 18.385 56.269 18.01 56.269 17.731C56.269 14.807 54.494 12.844 51.852 12.844C48.852 12.844 46.756 15.077 46.756 18.274C46.756 21.42 49.016 23.704 52.134 23.704C54.211 23.704 55.742 22.485 56.03 22.237L56.218 22.085L55.163 20.218L54.91 20.4V20.4ZM62.797 21.187L62.455 21.262C62.455 21.262 62.306 21.293 62.078 21.293C61.275 21.293 60.318 20.963 60.318 19.375V15.173H62.628V13.073H60.318V10.378H57.948V13.072H56.66V15.172H57.91V19.592C57.91 23.16 60.68 23.546 61.87 23.546C62.266 23.546 62.539 23.506 62.554 23.506L62.802 23.47V21.547L62.797 21.187V21.187ZM72.077 19.893L71.819 20.193C71.809 20.202 70.709 21.45 69.058 21.45C67.561 21.45 65.954 20.451 65.954 18.253C65.954 16.386 67.219 15.036 68.963 15.036C69.444 15.036 69.905 15.026 70.773 15.453L71.566 13.59C71.219 13.347 70.966 13.184 70.535 13.057C70.0236 12.9125 69.4944 12.8408 68.963 12.844C65.811 12.844 63.526 15.127 63.526 18.274C63.526 21.42 65.796 23.704 68.924 23.704C71.571 23.704 72.974 21.984 73.028 21.907L73.158 21.75L72.077 19.893V19.893ZM80.771 13.073V18.213C80.771 20.029 79.795 21.375 77.931 21.375C76.826 21.375 76.418 20.791 76.418 19.223V13.083L72.835 13.073V15.27H74.025V19.649C74.025 22.339 75.12 23.704 77.475 23.704C78.908 23.704 80.355 23.404 80.841 22.369V23.48H83.181V13.073H80.771V13.073ZM89.674 21.511C88.009 21.511 87.25 19.852 87.25 18.31C87.25 16.285 88.177 15.077 89.734 15.077C91.181 15.077 92.153 16.366 92.153 18.294C92.153 20.218 91.156 21.511 89.674 21.511V21.511ZM90.091 12.844C88.698 12.844 87.811 13.423 87.31 13.914V9.184H83.706V11.255L84.901 11.26V23.48H87.211V22.598C87.716 23.105 88.594 23.704 89.942 23.704C92.683 23.704 94.602 21.471 94.602 18.274C94.602 15.026 92.787 12.844 90.091 12.844V12.844ZM100.644 14.879C101.77 14.879 102.523 15.64 102.667 16.873H98.196C98.518 15.635 99.43 14.879 100.644 14.879V14.879ZM103.738 20.4C103.702 20.426 103.663 20.451 103.619 20.487C103.222 20.786 102.3 21.491 101.08 21.491C99.44 21.491 98.285 20.451 98.077 18.817H105.007L105.036 18.563C105.056 18.385 105.096 18.01 105.096 17.731C105.096 14.807 103.321 12.844 100.684 12.844C97.68 12.844 95.584 15.077 95.584 18.274C95.584 21.42 97.849 23.704 100.967 23.704C103.039 23.704 104.575 22.485 104.858 22.237L105.046 22.085L103.991 20.218L103.738 20.4V20.4Z" fill="#FEFEFE"/>
</svg>
