<svg xmlns="http://www.w3.org/2000/svg" width="145" viewBox="0 0 186 30" version="1.1" id="monsterLogoText" fill="#fff"><path fill="#fff" fill-rule="evenodd" clip-rule="evenodd" d="M116.757 12.012c-.62 0-1.08.185-1.378.555-.299.372-.478.867-.538 1.486h3.394c.049-.656-.052-1.16-.301-1.513-.25-.352-.641-.528-1.177-.528zm3.395 6.689c-.366.291-.862.538-1.489.739-.625.2-1.292.3-1.998.3-1.472 0-2.549-.428-3.23-1.284-.682-.858-1.023-2.034-1.023-3.528 0-1.603.384-2.807 1.15-3.609.767-.802 1.844-1.204 3.232-1.204.461 0 .911.062 1.35.183a3.17 3.17 0 011.168.601c.34.281.615.656.822 1.13.207.475.31 1.065.31 1.768 0 .256-.016.53-.046.822-.03.291-.076.595-.137.911h-5.475c.036.765.234 1.343.593 1.731.358.388.94.584 1.742.584.5 0 .947-.076 1.342-.228.396-.153.697-.307.904-.465l.785 1.549zm-14.62-8.33h1.259V8.658l2.372-.674v2.389h2.227v2.004h-2.227v3.5c0 .631.064 1.084.192 1.358.128.273.369.41.722.41.243 0 .452-.025.629-.073a4.53 4.53 0 00.593-.218l.42 1.822a5.91 5.91 0 01-1.15.401 5.52 5.52 0 01-1.332.164c-.84 0-1.457-.215-1.853-.646-.396-.432-.593-1.14-.593-2.124v-4.594h-1.26v-2.004zm-5.148 7.309c.474 0 .852-.106 1.132-.318.28-.213.487-.441.62-.684v-1.185a6.558 6.558 0 00-1.086-.019 3.97 3.97 0 00-.921.165 1.557 1.557 0 00-.64.364.816.816 0 00-.237.601c0 .34.101.606.302.793.2.189.477.283.83.283zm-3.01-6.78a7.834 7.834 0 011.733-.52 11.23 11.23 0 012.099-.191c.632 0 1.162.076 1.587.227.427.152.765.369 1.013.648.25.279.426.614.53 1.002.104.39.156.827.156 1.313 0 .535-.019 1.072-.056 1.612a29.076 29.076 0 00-.063 1.595 18 18 0 00.044 1.523c.037.492.129.957.275 1.393h-1.935l-.384-1.257h-.09a3.238 3.238 0 01-1.014.976c-.432.273-.988.41-1.67.41a3.26 3.26 0 01-1.15-.191 2.488 2.488 0 01-.876-.548 2.498 2.498 0 01-.566-.838 2.795 2.795 0 01-.2-1.084c0-.56.124-1.03.374-1.413s.609-.693 1.077-.93c.468-.236 1.028-.4 1.68-.492a11.904 11.904 0 012.18-.082c.086-.681.036-1.17-.145-1.467-.184-.298-.591-.447-1.224-.447a8.31 8.31 0 00-1.506.147c-.529.096-.964.224-1.304.382l-.566-1.769zm-2.867 5.521c0 .426.054.736.164.932.11.194.286.29.529.29.146 0 .29-.01.43-.036a2.58 2.58 0 00.52-.164l.255 1.858c-.195.098-.492.196-.894.293a5.273 5.273 0 01-1.241.146c-.694 0-1.223-.162-1.588-.483-.365-.323-.548-.853-.548-1.595V6.725h2.373v9.696zm-8.232-4.3c-.463 0-.824.116-1.086.346-.261.232-.465.577-.61 1.039v3.791c.17.135.355.24.555.32.2.078.466.118.795.118.681 0 1.192-.24 1.532-.72.341-.48.512-1.272.512-2.38 0-.802-.134-1.42-.402-1.858-.267-.437-.7-.656-1.296-.656zm-4.07-1.749h1.733l.275 1.093h.072c.318-.462.691-.802 1.123-1.021.433-.218.958-.329 1.58-.329 1.143 0 2.001.363 2.573 1.086.572.722.858 1.886.858 3.49 0 .779-.092 1.48-.274 2.106-.183.626-.453 1.157-.813 1.594a3.552 3.552 0 01-1.314 1.003c-.517.23-1.11.346-1.78.346a4.33 4.33 0 01-.93-.083 3.153 3.153 0 01-.73-.263v3.736h-2.373V10.372zm-9.51 9.114v-4.96c0-.838-.079-1.432-.237-1.785-.158-.352-.486-.53-.986-.53-.414 0-.748.114-1.004.338a2.14 2.14 0 00-.584.866v6.07h-2.372v-9.113h1.843l.273 1.202h.073c.28-.389.637-.728 1.068-1.02.433-.292.99-.439 1.671-.439.584 0 1.061.12 1.433.357.37.237.66.635.866 1.194.28-.474.64-.85 1.077-1.13.438-.28.968-.42 1.588-.42.511 0 .947.061 1.305.182.36.122.652.33.877.629.224.298.392.696.501 1.194.11.497.165 1.13.165 1.896v5.469h-2.373v-5.123c0-.716-.076-1.255-.228-1.613-.152-.358-.49-.538-1.013-.538-.426 0-.764.115-1.013.346-.25.231-.436.548-.557.948v5.98h-2.373zm-10.55-7.474c-.62 0-1.08.185-1.378.555-.298.372-.478.867-.538 1.486h3.394c.049-.656-.05-1.16-.3-1.513-.25-.352-.643-.528-1.177-.528zm3.395 6.689c-.365.291-.86.538-1.487.739-.627.2-1.293.3-2 .3-1.472 0-2.548-.428-3.23-1.284-.681-.858-1.022-2.034-1.022-3.528 0-1.603.384-2.807 1.15-3.609.767-.802 1.843-1.204 3.231-1.204.462 0 .913.062 1.35.183.438.122.828.323 1.168.601.342.281.615.656.822 1.13.207.475.31 1.065.31 1.768 0 .256-.016.53-.045.822a10.9 10.9 0 01-.137.911h-5.476c.037.765.234 1.343.594 1.731.358.388.94.584 1.742.584.5 0 .946-.076 1.342-.228.396-.153.697-.307.903-.465l.785 1.549zM58.302 8.95h-3.724v10.535h-2.5V8.95h-3.742V6.725h9.966V8.95zm127.319 3.645a3.103 3.103 0 00-1.022-.2c-.426 0-.781.112-1.068.337a1.626 1.626 0 00-.575.865v5.889h-2.372v-9.114h1.843l.274 1.201h.073c.207-.448.487-.795.84-1.037a2.135 2.135 0 011.24-.366c.316 0 .676.068 1.077.202l-.31 2.223zm-10.404-.583c-.62 0-1.08.185-1.378.555-.298.372-.477.866-.538 1.486h3.395c.049-.656-.052-1.16-.302-1.513-.249-.352-.641-.528-1.177-.528zm3.396 6.689c-.366.29-.862.538-1.488.739-.627.2-1.293.3-2 .3-1.471 0-2.548-.428-3.23-1.284-.682-.858-1.022-2.034-1.022-3.528 0-1.603.383-2.807 1.15-3.609.766-.802 1.843-1.204 3.231-1.204.462 0 .913.062 1.35.183.44.122.828.323 1.168.601.341.281.615.656.822 1.13.207.475.31 1.065.31 1.768 0 .256-.015.53-.046.822-.03.291-.075.594-.136.911h-5.476c.036.765.234 1.343.593 1.731.36.388.94.584 1.744.584a3.71 3.71 0 001.34-.228c.396-.153.697-.307.904-.465l.786 1.549zm-14.621-8.33h1.259V8.658l2.373-.674v2.389h2.227v2.004h-2.227v3.5c0 .631.064 1.084.192 1.358.128.273.368.41.72.41.244 0 .454-.025.63-.073.178-.049.374-.122.594-.218l.42 1.822a5.91 5.91 0 01-1.15.401 5.525 5.525 0 01-1.333.164c-.84 0-1.457-.215-1.852-.646-.396-.432-.594-1.14-.594-2.125v-4.593h-1.26v-2.004zm-2.975 6.599a.68.68 0 00-.31-.583 3.727 3.727 0 00-.767-.402c-.304-.122-.64-.245-1.004-.374a3.767 3.767 0 01-1.004-.528 2.904 2.904 0 01-.767-.856c-.206-.347-.31-.794-.31-1.34 0-.9.268-1.586.803-2.06.536-.474 1.309-.712 2.318-.712.694 0 1.32.074 1.88.22.56.145.999.31 1.314.492l-.529 1.713c-.28-.11-.632-.224-1.058-.347a4.735 4.735 0 00-1.296-.18c-.706 0-1.06.273-1.06.818 0 .22.104.395.312.529.207.134.462.258.766.374.304.116.64.24 1.003.374.366.133.701.306 1.005.519.304.213.559.489.766.83.207.34.31.778.31 1.312 0 .924-.295 1.65-.885 2.179-.59.527-1.475.792-2.655.792-.645 0-1.25-.083-1.816-.246-.566-.165-1.026-.355-1.379-.574l.658-1.768c.279.158.65.312 1.113.465a4.53 4.53 0 001.424.228c.352 0 .636-.067.848-.2.213-.135.32-.359.32-.675zm-8.141 2.516v-5.178c0-.74-.107-1.275-.32-1.604-.213-.328-.574-.492-1.085-.492-.45 0-.831.13-1.141.392a2.18 2.18 0 00-.666.976v5.906h-2.373v-9.114h1.88l.274 1.201h.073c.28-.388.65-.727 1.113-1.019.463-.292 1.058-.439 1.79-.439.45 0 .85.062 1.203.183.354.122.652.323.895.601.243.281.426.66.547 1.14.122.48.183 1.073.183 1.777v5.67h-2.373zm-13.38-4.558c0 .4.037.772.11 1.112.074.34.183.638.33.893.146.255.337.452.574.592.238.14.52.21.85.21.62 0 1.082-.225 1.386-.675.304-.449.456-1.16.456-2.132 0-.838-.14-1.516-.42-2.032-.28-.517-.754-.775-1.423-.775-.584 0-1.04.22-1.37.656-.328.437-.492 1.154-.492 2.151zm-2.445 0c0-1.543.377-2.731 1.132-3.563.754-.833 1.814-1.25 3.176-1.25.73 0 1.362.116 1.898.347.536.23.98.557 1.333.975.352.42.617.927.793 1.523.177.595.266 1.25.266 1.968 0 1.542-.376 2.73-1.123 3.563-.748.833-1.805 1.25-3.167 1.25-.73 0-1.363-.116-1.898-.347a3.645 3.645 0 01-1.342-.975 4.085 4.085 0 01-.803-1.523 6.901 6.901 0 01-.265-1.968zm-4.197-2.06l.273-2.534h-.109l-.786 2.041-2.719 4.758h-.803l-2.866-4.774-.803-2.025h-.091l.365 2.515v6.636h-2.373V6.725h2.282l3.413 5.833.602 1.458h.073l.548-1.495 3.23-5.796h2.264v12.76h-2.5v-6.618zM19.5 18.225a6.224 6.224 0 01-6.21-5.82c.686.151 1.381.279 2.085.38a4.2 4.2 0 005.356 3.231l-.154-2.765 2.115 1.477c.466-.545.795-1.21.934-1.943a28.464 28.464 0 002.085-.38 6.224 6.224 0 01-6.21 5.82zm8.25-8.475a26.675 26.675 0 01-4.238 1.005 26.759 26.759 0 01-8.024 0A26.412 26.412 0 0111.25 9.75h-.001V12a8.25 8.25 0 0016.5.005V9.75z"></path><path fill-rule="evenodd" clip-rule="evenodd" d="M33.367 22.183l-4.06-2.835.322 5.793A19.41 19.41 0 0119.5 27.975a19.411 19.411 0 01-10.128-2.833l.323-5.795-4.062 2.836a19.556 19.556 0 01-3.499-4.827A17.759 17.759 0 014.15 12.5a16.6 16.6 0 01-.845-2.397 16.788 16.788 0 01-.407-6.728l5.808 4.056A17.817 17.817 0 0119.5 3.81a17.817 17.817 0 0110.795 3.621l5.807-4.056a16.789 16.789 0 01-1.251 9.125 17.747 17.747 0 012.014 4.856 19.554 19.554 0 01-3.498 4.827zm4.697-7.724a19.832 19.832 0 00-.967-2.102 18.872 18.872 0 00.852-10.216l-.01-.048A18.644 18.644 0 0037.4 0l-7.103 4.96A19.832 19.832 0 0019.5 1.786 19.832 19.832 0 008.704 4.96L1.6 0a18.88 18.88 0 00-.54 2.093l-.008.047a18.885 18.885 0 00.851 10.217A19.834 19.834 0 000 17.6a21.482 21.482 0 003.95 5.758c.476.498.976.973 1.499 1.423L7.44 23.39l-.156 2.81A21.431 21.431 0 0019.5 30a21.432 21.432 0 0012.216-3.802l-.156-2.807 1.991 1.39a21.657 21.657 0 003.807-4.284A21.493 21.493 0 0039 17.6a19.8 19.8 0 00-.936-3.141z"></path></svg>