<svg xmlns="http://www.w3.org/2000/svg" width="250"  viewBox="0 0 63.18 50.05" id="zeo-small" ><g fill="#ff550c" data-name="Layer 2"><g data-name="Layer 1" fill="#ff550c"><path d="M18.48 23.58h-9a.44.44 0 0 1-.4-.4c0-.1 0-.2.1-.2s8.9-9.31 9.7-10.31a3.3 3.3 0 0 0-2.5-5.39H.68a.37.37 0 0 0-.3.1v.3a10.31 10.31 0 0 0 1.3 4.2 1 1 0 0 0 .7.4H11a.52.52 0 0 1 .4.2.29.29 0 0 1 0 .39s-8.9 9.31-9.7 10.2a3.21 3.21 0 0 0 .4 4.6 3.23 3.23 0 0 0 2.1.8h15.9c.1 0 .2-.1.3-.1a.37.37 0 0 0 .1-.3 9.43 9.43 0 0 0-1.3-4.1 1.25 1.25 0 0 0-.72-.39z"></path><path d="M32.78 31.38a16.11 16.11 0 0 1-6.9-10.7h2.5c.2 0 .4-.1.4-.3a12.91 12.91 0 0 0 0-4.8c0-.2-.2-.3-.4-.3h-2.5a15.66 15.66 0 0 1 6.9-10.7c.2-.2.3-.41.2-.6a9.94 9.94 0 0 0-2.4-3.91.67.67 0 0 0-.6 0 21.42 21.42 0 0 0-5.9 29.79 23.3 23.3 0 0 0 5.9 5.9.64.64 0 0 0 .6 0A8.53 8.53 0 0 0 33 32a.45.45 0 0 0-.22-.62zM18.5 39.15a.91.91 0 0 0-.7.3l-.4.4c-.1.1-.1.1 0 .2a4.65 4.65 0 0 1 0 6.4c-.1.1-.1.2 0 .2l.4.4a.91.91 0 0 0 .7.3 1 1 0 0 0 .7-.4 6.28 6.28 0 0 0 1.2-3.7 5.78 5.78 0 0 0-1.2-3.6c-.2-.4-.4-.5-.7-.5zm8.2.9a.79.79 0 0 0-.8-.5H25c-.1 0-.1 0-.1.1L21.6 47v.1H23l2.6-5.9 1.4 3.2h-.9a.79.79 0 0 0-.8.5l-.3.6v.1h2.6l.4.9a1 1 0 0 0 .8.5h.9v-.1zm-21.6 0a.79.79 0 0 0-.8-.5h-.9c-.1 0-.1 0-.1.1L0 46.85V47h1.5l2.6-5.9 1.4 3.2h-.9a.79.79 0 0 0-.8.5l-.3.6v.1H6l.4.9a.89.89 0 0 0 .8.5h.9v-.1zm11.8-3l-.4-.4a.86.86 0 0 0-.6-.3.91.91 0 0 0-.7.3 10.25 10.25 0 0 0 0 13 .91.91 0 0 0 .7.3.71.71 0 0 0 .6-.3l.4-.4c.1-.1.1-.1 0-.2a8.58 8.58 0 0 1 0-11.9c.1 0 .1-.1 0-.1z"></path><path d="M13.4 37.25c.1-.1.1-.2 0-.2l-.4-.4c-.2-.2-.4-.3-.6-.2a.71.71 0 0 0-.6.3 10.25 10.25 0 0 0 0 13 .86.86 0 0 0 .6.3.71.71 0 0 0 .6-.3l.4-.4c.1-.1.1-.1 0-.2a8.78 8.78 0 0 1 0-11.9zm24.3 2h-1.2c-.1 0-.1.1-.1.2v4.9l-3.6-4.7a.84.84 0 0 0-.7-.4h-.6a.1.1 0 0 0-.1.1v7.4c0 .1.1.1.1.2h1.2c.1 0 .1-.1.1-.2V42l3.6 4.7a1 1 0 0 0 .7.4h.6a.1.1 0 0 0 .1-.1v-7.6a.1.1 0 0 0-.1-.15zm15.4 0h-5.5c-.1 0-.1 0-.2.1v7.5a.1.1 0 0 0 .1.1H53a.1.1 0 0 0 .1-.1v-1.1c0-.1 0-.1-.1-.2h-4.2v-1.8h3.5c.1 0 .1-.1.2-.1v-1c0-.1-.1-.1-.2-.2h-3.5v-1.8H53a.1.1 0 0 0 .1-.1v-1.1c.2-.1.1-.2 0-.2zm-10 1.4a2.69 2.69 0 0 1 1.5.5 1.08 1.08 0 0 0 1.1 0l.4-.3v-.2a4 4 0 1 0-.4 5.6c.2-.1.3-.3.4-.4v-.2l-.5-.3a1.08 1.08 0 0 0-1.1 0 2.69 2.69 0 0 1-1.5.5 2.48 2.48 0 0 1-2.5-2.5 2.74 2.74 0 0 1 2.6-2.7zM42.08 6.38a11.5 11.5 0 1 0 11.5 11.49 11.56 11.56 0 0 0-11.5-11.49zm0 17.89a6.37 6.37 0 0 1-6.4-6.4 6.31 6.31 0 0 1 6.4-6.39 6.38 6.38 0 0 1 6.4 6.39 6.51 6.51 0 0 1-6.4 6.4zM59.28 9a3.91 3.91 0 0 1-3.9-3.9 3.9 3.9 0 0 1 7.8 0 4 4 0 0 1-3.9 3.9zm0-6.81a2.91 2.91 0 1 0 2.9 2.91 2.91 2.91 0 0 0-2.9-2.93z"></path><path d="M61 4.37a1.2 1.2 0 0 1-.8 1.2l1 1.3h-.8l-.9-1.2h-.8v1.2H58v-3.7h1.4a1.68 1.68 0 0 1 1.2.31 1.24 1.24 0 0 1 .4.89zm-.9.61a.81.81 0 0 0 .2-.5.76.76 0 0 0-.2-.5c-.1-.1-.4-.1-.7-.1h-.8v1.29h.8c.38-.09.6-.09.68-.17z"></path></g></g></svg>